<?xml version="1.0" standalone="no"?>
<!DOCTYPE svg PUBLIC "-//W3C//DTD SVG 20010904//EN"
 "http://www.w3.org/TR/2001/REC-SVG-20010904/DTD/svg10.dtd">
<svg version="1.0" xmlns="http://www.w3.org/2000/svg"
 width="1300.000000pt" height="929.000000pt" viewBox="0 0 1300.000000 929.000000"
 preserveAspectRatio="xMidYMid meet">

<g transform="translate(0.000000,929.000000) scale(0.100000,-0.100000)"
fill="#000000" stroke="none">
<path d="M573 8903 c-7 -2 -13 -19 -13 -36 0 -26 16 -47 108 -137 59 -58 156
-161 216 -230 l110 -125 -180 -6 c-222 -8 -401 -46 -424 -90 -22 -40 4 -62
220 -194 261 -158 360 -227 703 -489 156 -118 206 -161 197 -170 -7 -7 -81
-11 -228 -12 -284 -2 -264 0 -260 -26 2 -15 15 -26 48 -36 l45 -16 -48 -12
c-90 -23 -98 -58 -16 -69 27 -4 49 -10 49 -13 0 -4 -16 -17 -36 -30 -26 -17
-34 -29 -32 -45 3 -19 9 -22 38 -19 19 1 76 16 125 31 168 54 353 80 343 49
-9 -26 -86 -70 -178 -101 -77 -26 -95 -36 -95 -52 0 -18 8 -20 64 -23 l64 -3
-37 -33 c-60 -55 -41 -81 34 -47 25 11 46 18 48 16 2 -2 -4 -17 -13 -35 -9
-17 -15 -41 -13 -53 8 -58 72 -14 182 124 56 71 89 103 128 124 57 32 68 32
333 24 122 -4 203 15 316 71 107 54 328 215 439 319 30 28 65 54 78 57 13 4
56 -4 100 -19 115 -37 236 -51 447 -52 174 0 195 2 254 23 59 21 125 33 355
61 81 10 113 27 103 55 -15 38 -120 78 -442 170 -270 77 -385 130 -385 177 0
29 -27 77 -51 90 -12 6 -58 13 -103 16 -96 5 -130 16 -143 46 -54 124 -66 136
-152 155 -88 20 -253 90 -307 131 -61 46 -90 97 -104 184 -13 85 -28 116 -57
123 -35 9 -71 -20 -83 -67 -16 -57 2 -196 34 -265 31 -66 99 -134 220 -215
116 -79 146 -107 146 -136 0 -24 -64 -127 -94 -152 -19 -16 -11 -20 -145 84
-107 83 -115 100 -115 255 -1 58 -5 111 -9 118 -13 19 -39 14 -69 -15 -23 -22
-28 -24 -29 -10 -1 9 -3 22 -4 27 -1 6 -3 16 -4 24 0 8 -10 18 -22 21 -16 5
-30 -2 -59 -30 -36 -36 -38 -36 -66 -22 -16 8 -76 57 -134 107 -233 205 -388
273 -805 354 -71 14 -186 32 -255 41 -118 14 -311 19 -337 8z m322 -48 c153
-18 492 -85 585 -115 92 -30 237 -100 309 -149 33 -23 102 -78 152 -122 102
-90 159 -129 188 -129 11 0 33 11 49 25 30 25 48 33 38 16 -3 -5 -1 -23 5 -40
14 -39 43 -41 80 -5 l28 26 -6 -74 c-8 -105 20 -206 99 -359 35 -68 71 -128
81 -133 27 -17 62 9 145 104 71 83 122 167 122 201 0 30 -49 77 -158 151 -155
106 -205 159 -231 242 -25 81 -29 217 -7 235 21 17 33 -5 46 -82 18 -114 46
-163 126 -218 62 -42 212 -107 304 -130 80 -20 100 -36 119 -99 15 -51 60 -91
116 -101 26 -5 57 -6 70 -3 12 3 41 0 64 -6 42 -11 53 -25 66 -83 13 -63 118
-110 465 -210 242 -70 340 -104 340 -117 0 -4 -37 -11 -82 -15 -133 -10 -268
-34 -338 -58 -58 -19 -85 -22 -243 -22 -178 0 -179 0 -199 25 -18 22 -19 34
-7 80 7 26 -25 16 -38 -12 -10 -19 -10 -33 -3 -53 l10 -27 -57 7 c-68 8 -183
45 -253 80 -147 74 -391 74 -667 0 -143 -39 -325 -102 -478 -166 -76 -32 -140
-57 -142 -55 -2 1 -16 40 -33 87 -72 201 -170 365 -391 659 -201 266 -344 431
-507 583 -34 31 -62 62 -62 67 0 15 146 12 295 -5z m177 -581 c154 -203 283
-392 351 -516 38 -68 121 -267 115 -274 -2 -2 -107 75 -233 172 -259 197 -410
302 -665 459 -174 108 -219 140 -209 150 9 8 158 44 224 54 33 5 131 9 217 10
l157 1 43 -56z m1443 -328 c28 -22 54 -43 59 -48 12 -9 -43 -70 -56 -62 -9 6
-88 158 -88 170 0 7 5 3 85 -60z m35 -296 c0 -53 15 -92 57 -148 13 -17 22
-36 19 -40 -2 -4 -25 -22 -49 -40 l-45 -32 -30 34 c-37 43 -67 122 -77 203
l-7 62 34 4 c18 2 48 5 66 5 l32 2 0 -50z m248 24 c28 -9 52 -20 51 -23 -1 -8
-155 -143 -176 -155 -34 -19 -93 82 -93 160 l0 47 83 -6 c45 -3 106 -14 135
-23z m-399 -70 c13 -90 41 -157 81 -199 l29 -30 -56 -38 -57 -37 -44 42 c-55
54 -97 139 -112 230 -7 38 -10 71 -8 74 4 4 122 31 144 33 7 1 16 -31 23 -75z
m-189 -41 c15 -89 50 -164 106 -230 l46 -53 -47 -20 c-82 -35 -86 -35 -132 12
-53 55 -89 126 -108 217 -22 107 -23 106 38 124 84 25 84 25 97 -50z m-168
-63 c21 -104 59 -185 110 -236 46 -48 45 -48 -53 -59 -65 -8 -78 0 -124 79
-30 52 -50 118 -60 203 l-7 59 49 16 c26 9 53 17 58 17 6 1 18 -35 27 -79z
m-154 -32 c6 -35 14 -75 16 -89 8 -38 35 -100 58 -132 11 -16 19 -29 17 -30
-2 -1 -39 -1 -82 1 -74 3 -78 5 -92 32 -26 50 -75 214 -67 222 7 7 121 57 133
58 3 0 11 -28 17 -62z m-149 -127 c44 -128 46 -124 -64 -96 -60 16 -100 43
-110 75 -6 20 9 66 30 86 14 15 97 54 103 49 2 -2 20 -53 41 -114z m-213 -6
l0 -55 -52 0 c-63 0 -160 -20 -267 -53 -42 -14 -77 -21 -77 -17 0 5 5 12 10
15 16 10 11 43 -7 54 -16 8 -15 11 10 20 33 13 44 36 27 56 -11 13 5 15 126
16 111 0 227 9 229 18 1 0 1 -24 1 -54z m165 -135 c29 0 22 -13 -20 -39 -22
-13 -62 -54 -90 -90 -89 -115 -123 -148 -99 -96 13 28 -3 55 -32 55 -13 0 -17
6 -13 19 3 13 -2 24 -14 32 -18 11 -14 15 49 46 38 19 80 50 95 68 26 33 27
33 66 19 22 -8 48 -14 58 -14z"/>
<path d="M3082 8015 c-38 -32 -46 -65 -28 -110 11 -25 26 -40 51 -51 100 -42
183 80 106 157 -38 38 -87 39 -129 4z m41 -17 c-4 -13 -8 -47 -7 -76 1 -51 0
-52 -20 -38 -31 20 -34 88 -5 115 30 27 42 27 32 -1z"/>
<path d="M3413 7834 c-8 -21 23 -52 37 -38 6 6 8 18 5 27 -9 22 -35 29 -42 11z"/>
<path d="M11621 8710 c-66 -16 -105 -59 -116 -130 -4 -26 -13 -41 -36 -54 -61
-36 -77 -129 -34 -202 27 -46 107 -94 156 -94 22 0 32 -9 51 -42 62 -114 249
-118 324 -7 l19 28 45 -42 c90 -86 144 -86 230 2 47 48 64 59 112 69 43 10 64
21 87 47 57 65 52 135 -14 199 -34 33 -44 50 -49 89 -15 104 -118 159 -200
107 -20 -12 -40 -28 -44 -37 -8 -13 -15 -11 -52 13 -60 40 -147 45 -211 12
l-46 -24 -34 28 c-52 44 -112 56 -188 38z m111 -30 c20 -6 51 -24 68 -40 18
-17 36 -30 41 -30 4 0 25 11 45 25 55 37 134 35 197 -5 26 -16 53 -30 59 -30
6 0 26 16 45 35 45 46 97 49 144 7 27 -24 33 -37 37 -85 4 -50 8 -58 44 -87
50 -41 63 -73 49 -122 -14 -47 -52 -74 -120 -86 -32 -6 -58 -17 -63 -27 -25
-43 -73 -86 -109 -95 -49 -13 -79 1 -137 64 -23 25 -46 46 -51 46 -5 0 -18
-17 -28 -37 -13 -25 -34 -46 -63 -60 -89 -46 -193 -18 -232 61 -18 37 -27 46
-49 46 -92 0 -169 71 -169 156 0 32 7 44 45 80 36 33 47 51 54 89 10 55 24 71
77 90 47 17 68 18 116 5z"/>
<path d="M4915 8619 c-11 -6 -36 -29 -56 -50 -21 -22 -46 -39 -58 -39 -30 0
-78 -26 -91 -49 -5 -11 -10 -36 -10 -56 0 -29 8 -45 35 -72 23 -23 35 -45 35
-62 0 -27 22 -66 50 -88 27 -22 88 -16 116 12 24 24 24 24 57 6 54 -32 91 -35
143 -12 l47 21 23 -21 c29 -27 96 -40 141 -27 46 12 83 50 83 83 0 17 12 38
35 59 30 29 35 40 35 79 0 61 -41 110 -104 126 -31 7 -51 21 -66 41 -12 17
-34 37 -50 45 -62 32 -161 8 -190 -46 -12 -21 -12 -21 -49 15 -41 40 -92 54
-126 35z m83 -23 c15 -8 37 -28 50 -46 l23 -31 37 42 c33 36 44 42 87 46 61 5
92 -10 124 -60 20 -31 30 -37 59 -37 50 0 102 -54 102 -107 0 -32 -6 -45 -35
-70 -22 -20 -35 -40 -35 -56 0 -80 -129 -109 -197 -45 l-23 22 -44 -22 c-56
-29 -95 -28 -140 3 -20 14 -40 25 -45 25 -4 0 -18 -11 -31 -25 -17 -18 -34
-25 -61 -25 -46 0 -73 30 -83 89 -4 26 -13 44 -27 51 -11 7 -27 27 -35 46 -13
30 -13 38 1 64 18 34 43 50 80 50 19 0 39 12 64 39 58 62 83 71 129 47z"/>
<path d="M10066 8179 c-33 -26 -33 -46 1 -112 14 -29 32 -70 38 -92 20 -66 61
-57 96 20 10 22 19 62 19 89 0 41 -5 53 -34 82 -40 40 -80 44 -120 13z m95
-38 c35 -36 38 -75 8 -133 l-21 -42 -18 45 c-9 24 -27 62 -39 84 l-21 40 21
18 c29 23 36 22 70 -12z"/>
<path d="M8080 8114 c-74 -29 -99 -48 -121 -89 -16 -30 -31 -45 -44 -45 -80 0
-174 -71 -194 -147 -15 -56 2 -127 36 -151 50 -34 63 -52 63 -84 0 -127 196
-183 316 -92 l45 35 32 -23 c27 -19 45 -23 112 -23 72 0 84 3 122 29 l43 29
41 -38 c39 -35 45 -37 93 -33 84 7 130 54 143 143 5 38 14 54 51 89 39 37 45
49 49 92 8 89 -52 157 -149 170 -43 6 -53 12 -75 46 -48 72 -145 108 -206 77
-12 -6 -41 -30 -65 -53 l-43 -41 -21 28 c-34 47 -94 79 -157 83 -31 2 -63 1
-71 -2z m105 -35 c55 -15 89 -42 109 -84 9 -19 23 -35 30 -35 8 0 30 20 51 45
82 100 173 99 241 -4 14 -22 34 -42 43 -45 9 -2 39 -9 67 -16 123 -27 152
-160 50 -221 -30 -17 -34 -26 -40 -75 -4 -31 -15 -69 -26 -84 -44 -62 -130
-64 -176 -5 -28 38 -54 44 -75 19 -23 -28 -87 -54 -134 -54 -42 0 -88 18 -137
52 -14 10 -23 6 -57 -25 -108 -97 -281 -54 -281 70 0 18 -15 40 -49 72 -60 57
-70 98 -39 161 26 53 78 87 145 96 47 6 52 9 69 46 19 41 57 75 102 88 38 12
61 11 107 -1z"/>
<path d="M10349 7997 c-50 -34 -73 -118 -49 -181 13 -36 34 -33 78 12 21 20
54 50 75 65 44 33 48 66 12 102 -31 31 -72 32 -116 2z m93 -24 c25 -23 23 -40
-9 -60 -16 -9 -44 -32 -64 -51 -43 -40 -54 -31 -45 32 8 51 46 91 90 95 5 1
18 -6 28 -16z"/>
<path d="M9943 7818 c-27 -13 -47 -60 -39 -92 4 -16 23 -32 62 -50 31 -15 71
-38 89 -51 39 -30 51 -31 65 -5 15 28 -4 120 -31 155 -39 49 -98 66 -146 43z
m111 -54 c22 -23 36 -63 36 -106 0 -18 -2 -17 -32 6 -18 13 -52 32 -75 41 -43
17 -56 34 -46 61 14 38 78 36 117 -2z"/>
<path d="M10419 7619 c-65 -30 -97 -126 -68 -208 14 -41 40 -40 73 4 15 19 47
46 72 61 67 39 81 79 44 126 -26 33 -70 39 -121 17z m95 -40 c20 -29 13 -41
-44 -78 -27 -18 -58 -44 -70 -58 l-20 -26 0 54 c1 61 16 96 51 115 35 20 66
17 83 -7z"/>
<path d="M6638 7591 c-55 -18 -95 -52 -178 -151 -97 -115 -132 -137 -242 -151
-140 -19 -222 -82 -249 -191 -36 -153 81 -281 284 -308 43 -5 126 -10 183 -10
130 0 153 -10 188 -82 52 -106 82 -267 146 -770 19 -150 56 -343 75 -390 7
-17 -20 -18 -481 -18 -269 0 -727 -5 -1017 -11 -291 -6 -532 -8 -535 -4 -4 4
-7 86 -7 183 1 178 13 322 41 462 19 92 104 351 114 345 4 -3 10 -18 13 -34
19 -93 196 -191 385 -214 57 -7 61 5 28 91 -51 134 -104 193 -209 236 l-54 22
107 52 c152 74 244 170 341 358 44 85 49 122 18 150 -43 39 -246 10 -384 -56
-112 -53 -210 -149 -281 -273 -14 -26 -25 -36 -27 -27 -2 8 -10 37 -16 65 -31
127 -115 249 -244 351 -91 71 -146 102 -203 111 l-37 6 7 -109 c9 -146 26
-221 74 -318 49 -98 121 -181 216 -248 l71 -50 -56 7 c-108 13 -283 -29 -396
-97 -80 -47 -231 -193 -217 -208 7 -7 69 -14 161 -17 134 -5 157 -4 219 15 69
21 178 87 263 159 44 38 44 38 -22 -52 -183 -248 -329 -603 -352 -857 -8 -91
9 -83 -205 -93 -74 -4 -247 -15 -385 -25 -137 -10 -252 -16 -255 -14 -10 10
40 173 80 262 44 98 45 122 8 122 -50 0 -180 -91 -220 -154 l-20 -31 7 57 c7
65 -1 76 -44 54 -37 -20 -76 -67 -92 -111 -21 -57 -32 -41 -26 35 6 76 -2 93
-34 64 -25 -23 -85 -129 -94 -166 -11 -42 -19 -34 -34 30 -24 105 -122 436
-157 529 -38 100 -78 190 -120 266 -35 63 -26 72 69 72 98 0 147 -26 258 -136
50 -49 94 -89 99 -89 25 0 -7 109 -62 213 -31 59 -100 137 -143 164 -46 29 63
0 144 -38 56 -27 88 -36 94 -30 28 28 -90 237 -165 295 -76 58 -212 74 -296
36 l-43 -20 -52 29 c-76 43 -128 54 -179 41 -87 -23 -145 -82 -171 -171 -11
-38 -17 -43 -57 -55 -84 -25 -163 -111 -200 -219 -28 -81 -44 -224 -30 -274 6
-22 16 -41 23 -41 7 0 32 35 57 76 59 100 179 209 134 122 -27 -53 -30 -136
-5 -209 38 -114 131 -249 172 -249 17 0 19 8 21 73 2 79 2 79 12 157 22 171
65 260 126 260 25 0 29 -6 49 -65 25 -78 66 -278 81 -395 12 -99 14 -350 2
-350 -4 0 -15 13 -25 29 -61 103 -163 190 -207 176 -26 -8 -25 -30 5 -111 14
-36 25 -68 25 -70 0 -2 -23 12 -50 32 -46 33 -80 39 -80 16 0 -5 13 -61 30
-123 16 -63 30 -120 30 -126 0 -16 -133 -16 -315 -3 -66 5 -286 12 -490 16
-203 4 -372 8 -374 11 -3 2 -15 54 -28 116 -34 165 -59 258 -104 387 -23 63
-42 124 -42 134 -2 16 13 23 89 42 165 40 221 74 250 151 16 42 16 45 -3 71
-11 15 -36 31 -57 36 -32 8 -44 5 -106 -26 l-70 -36 31 39 c17 21 35 41 40 45
20 12 49 85 49 124 0 33 -6 48 -30 72 -26 25 -35 29 -63 23 -70 -15 -120 -62
-169 -159 l-25 -50 -8 49 c-18 123 -109 206 -173 158 -32 -24 -50 -73 -51
-136 l-1 -47 -40 26 c-56 37 -130 44 -159 15 -30 -30 -37 -69 -20 -116 l15
-40 -94 0 c-90 0 -95 -1 -118 -28 -48 -56 -20 -112 74 -147 65 -25 234 -56
357 -66 l85 -7 26 -56 c39 -85 64 -195 64 -282 0 -113 -9 -126 -34 -49 -22 65
-47 93 -66 74 -6 -6 -15 -39 -21 -74 -5 -35 -12 -68 -16 -73 -7 -12 -25 17
-58 96 -32 76 -51 99 -66 76 -5 -8 -7 -23 -5 -34 3 -11 8 -53 12 -92 8 -92 -5
-101 -69 -49 -50 40 -87 47 -87 16 0 -31 43 -120 83 -172 35 -46 36 -48 14
-48 -12 0 -166 -11 -342 -25 -176 -14 -321 -25 -322 -25 -2 0 -3 -9 -3 -20 0
-11 7 -20 16 -20 8 0 158 11 332 25 174 13 405 30 512 36 267 17 921 17 1220
0 403 -23 1293 -5 1645 34 102 11 700 44 995 55 511 19 867 25 1520 25 l625 0
19 -55 c10 -30 61 -161 112 -290 91 -230 154 -408 154 -435 0 -8 -31 -74 -69
-147 -116 -223 -231 -524 -231 -607 0 -68 47 -102 190 -135 41 -10 82 -20 92
-22 9 -3 21 -18 26 -34 20 -56 109 -78 335 -80 142 -1 198 11 228 48 25 32 24
61 -5 146 -33 93 -46 180 -46 296 0 87 23 287 35 298 3 3 15 -8 26 -24 12 -16
56 -63 98 -104 124 -123 304 -200 575 -246 177 -30 363 -14 488 40 15 7 15 4
3 -37 -19 -64 -35 -207 -35 -319 0 -93 1 -98 25 -114 50 -33 410 -42 517 -13
23 6 47 22 60 39 17 23 40 36 107 56 230 68 255 87 212 158 -17 27 -72 194
-114 343 l-15 53 42 11 c70 19 797 175 1086 233 295 59 665 125 980 175 212
34 320 62 341 87 11 14 10 19 -9 34 -29 24 -71 29 -382 40 -378 14 -406 17
-803 71 -416 57 -573 85 -787 139 -356 90 -493 153 -655 303 -47 44 -56 56
-40 57 11 0 133 9 270 20 454 35 774 45 1036 32 234 -12 402 -30 534 -57 209
-42 644 -71 935 -61 193 7 665 33 748 42 44 5 52 9 52 26 0 19 -4 20 -77 14
-569 -46 -1199 -50 -1439 -11 -27 5 -42 23 -121 143 -136 207 -127 191 -112
218 7 14 16 23 20 22 4 -2 47 -39 94 -83 110 -100 181 -149 265 -177 59 -21
81 -23 234 -20 192 3 290 -10 440 -58 217 -70 332 -45 494 106 39 35 74 64 78
64 5 0 35 -44 66 -98 53 -89 58 -94 58 -63 0 26 -31 86 -130 251 -271 454
-400 623 -515 676 -68 32 -104 30 -195 -11 -100 -45 -149 -46 -213 -4 -161
107 -261 38 -592 -407 -69 -93 -130 -170 -135 -172 -5 -2 -48 74 -94 170 -139
287 -274 621 -346 858 -17 58 -34 112 -37 120 -3 8 -7 22 -8 30 -9 67 -44 151
-78 188 -42 46 -99 15 -161 -87 -69 -114 -95 -117 -146 -19 -42 82 -69 111
-104 111 -37 0 -70 -25 -118 -91 -49 -67 -66 -81 -95 -82 -38 0 -52 11 -103
81 -55 75 -80 94 -116 85 -46 -12 -81 -114 -143 -416 -92 -447 -187 -685 -394
-987 l-98 -142 -72 60 c-125 106 -248 189 -362 245 -208 102 -359 126 -955
154 -113 6 -234 15 -269 20 -154 26 -221 85 -311 273 -110 232 -130 315 -109
457 6 47 14 99 16 115 3 17 7 74 10 128 12 224 -81 403 -244 466 -64 25 -199
37 -245 22z m234 -69 c61 -27 128 -89 156 -144 42 -85 55 -163 49 -293 -3 -66
-8 -131 -12 -145 -16 -69 -23 -183 -14 -241 22 -139 149 -417 227 -501 92 -99
184 -122 537 -138 696 -31 837 -67 1147 -297 121 -89 206 -164 378 -328 69
-66 153 -142 187 -168 128 -98 295 -164 618 -242 360 -88 1001 -178 1380 -194
550 -24 544 -22 274 -66 -576 -93 -903 -155 -1589 -301 -704 -150 -744 -163
-800 -251 -40 -63 -63 -174 -58 -278 4 -70 10 -94 39 -152 19 -37 35 -71 37
-74 7 -15 -64 -32 -160 -37 l-108 -5 0 29 c-2 82 -77 141 -122 96 l-21 -20
-28 20 c-25 19 -32 20 -55 9 l-27 -12 7 100 c7 100 29 203 59 272 9 19 12 41
8 48 -5 8 -60 15 -167 22 -229 14 -346 26 -459 50 -212 44 -481 151 -595 238
-30 23 -62 40 -70 39 -27 -6 -70 -258 -70 -417 0 -86 24 -223 51 -296 37 -100
16 -123 -117 -128 l-79 -2 -6 49 c-8 73 -64 109 -114 72 -17 -12 -23 -11 -49
11 -25 21 -36 24 -69 19 l-38 -6 7 402 7 403 -37 119 c-21 66 -76 213 -122
328 -106 261 -167 439 -193 563 -23 103 -56 319 -66 425 -27 291 -89 571 -146
656 -31 44 -92 74 -154 74 l-48 0 21 23 c38 41 52 107 22 107 -6 0 -17 -15
-25 -34 -17 -39 -65 -83 -103 -93 -41 -10 -172 15 -232 45 -30 15 -68 44 -85
65 -26 34 -30 47 -30 101 0 116 65 176 210 197 129 18 169 44 292 192 86 103
119 119 228 114 52 -3 97 -12 127 -25z m-2295 -303 l53 -39 -17 -43 c-9 -23
-19 -46 -23 -50 -6 -7 -130 181 -130 197 0 11 62 -24 117 -65z m-71 -66 c29
-48 48 -90 42 -92 -5 -2 -29 2 -53 9 -38 11 -43 16 -49 48 -8 49 -8 137 0 129
4 -4 31 -46 60 -94z m6132 2 c10 -13 34 -75 51 -137 28 -95 91 -299 109 -347
3 -7 -16 3 -42 23 -26 20 -59 39 -73 42 -38 10 -88 -19 -120 -68 -41 -65 -74
-98 -98 -98 -25 0 -73 30 -125 79 -46 43 -86 63 -125 63 -47 0 -68 -14 -117
-79 -27 -35 -52 -58 -63 -58 -12 0 -35 22 -61 60 -80 114 -139 123 -251 37
-18 -13 -33 -22 -33 -19 0 18 45 236 65 317 28 109 48 161 68 178 16 14 27 4
81 -73 43 -60 81 -85 130 -85 33 0 45 7 80 43 22 24 56 62 74 85 52 65 77 55
127 -50 28 -60 47 -82 81 -92 30 -9 83 30 120 89 39 61 83 115 94 115 5 0 17
-11 28 -25z m-5888 -107 c0 -18 -58 -118 -69 -118 -4 0 -25 27 -45 59 -35 57
-35 60 -21 88 9 15 20 41 26 58 l10 30 50 -52 c27 -28 49 -57 49 -65z m805 83
c-23 -20 -184 -109 -189 -103 -3 3 -6 25 -6 48 0 42 1 43 43 52 54 13 164 15
152 3z m-220 -76 c0 -55 0 -55 -52 -95 -50 -37 -53 -38 -63 -20 -6 11 -12 43
-13 72 l-2 52 55 23 c30 12 60 23 65 23 6 0 10 -25 10 -55z m206 -33 c-17 -33
-34 -63 -38 -65 -15 -9 -116 34 -105 45 28 28 167 103 170 92 2 -7 -11 -39
-27 -72z m-998 11 c33 -5 42 -12 73 -60 48 -75 38 -84 -64 -62 -46 9 -51 13
-65 52 -32 87 -32 91 -6 82 13 -4 41 -9 62 -12z m637 -28 c0 -20 6 -50 13 -68
l14 -32 -73 -68 -73 -68 -14 28 c-8 15 -17 47 -21 70 -5 38 -3 46 26 79 34 39
104 94 120 94 4 0 8 -16 8 -35z m-374 -36 c25 -49 25 -55 14 -115 -20 -106
-29 -108 -83 -23 l-47 73 24 25 c13 14 31 41 40 59 9 17 19 32 21 32 3 0 16
-23 31 -51z m615 -16 c32 -15 59 -30 59 -33 0 -6 -71 -104 -84 -118 -7 -6
-146 85 -146 96 0 6 99 80 109 82 1 0 30 -12 62 -27z m-2781 -93 c33 -17 60
-32 60 -35 0 -2 -11 -21 -25 -41 -29 -43 -55 -123 -55 -171 0 -18 -2 -33 -5
-33 -3 0 -26 16 -51 36 -59 45 -109 70 -167 84 l-45 12 10 36 c22 81 99 141
181 142 22 0 62 -12 97 -30z m2076 -47 l43 -68 -32 -3 c-58 -5 -108 19 -154
76 -24 29 -43 56 -43 60 0 4 32 6 71 5 l71 -1 44 -69z m579 15 l76 -51 -28
-23 c-15 -13 -51 -36 -80 -51 l-51 -27 -49 23 c-98 46 -97 44 -18 116 39 35
71 64 72 65 1 0 37 -23 78 -52z m-262 -68 c4 -10 -19 -43 -68 -95 l-74 -80 -1
33 c0 36 32 140 55 178 8 13 22 36 32 51 l16 27 17 -49 c9 -28 20 -57 23 -65z
m-2032 74 c62 -32 112 -86 153 -163 21 -40 36 -74 33 -77 -2 -2 -31 8 -63 23
-61 28 -79 30 -244 22 -104 -5 -165 -37 -199 -103 -32 -61 -41 -45 -31 55 13
134 73 232 158 260 43 14 153 4 193 -17z m1859 -22 c0 -15 4 -41 8 -57 6 -18
5 -45 -2 -69 l-11 -39 -28 41 -27 42 20 37 c11 21 20 48 20 61 0 13 4 20 10
17 6 -3 10 -18 10 -33z m219 -95 c6 -8 29 -22 51 -32 22 -10 40 -21 40 -24 0
-11 -227 -94 -243 -88 -8 2 122 155 134 156 4 1 12 -5 18 -12z m-268 -48 c15
-24 27 -45 25 -47 -6 -5 -96 43 -132 70 l-31 23 55 -2 c52 -1 55 -3 83 -44z
m5884 15 c54 -25 152 -144 179 -216 105 -277 299 -667 432 -869 65 -100 86
-139 74 -139 -9 0 -81 11 -161 24 -255 43 -372 51 -754 50 -291 0 -428 -5
-716 -27 -196 -15 -364 -27 -373 -27 -10 0 -51 32 -91 71 l-74 71 113 167
c159 236 244 419 319 686 l31 111 57 42 c102 75 151 76 194 3 11 -19 34 -49
52 -68 54 -57 91 -42 176 70 22 30 34 37 62 37 33 0 37 -3 166 -109 17 -13 47
-26 72 -28 36 -4 48 -1 74 21 17 15 43 46 57 71 22 37 60 75 74 75 2 0 19 -7
37 -16z m-8247 -39 c74 -34 109 -61 143 -108 37 -52 37 -61 -3 -37 -79 45
-182 29 -262 -41 -24 -22 -53 -39 -64 -39 -33 0 -104 -61 -149 -129 l-43 -63
0 49 c0 62 23 170 48 226 26 59 88 126 137 148 57 26 129 24 193 -6z m482 -51
c72 -21 145 -95 193 -194 20 -41 35 -76 33 -77 -1 -2 -29 22 -62 52 -32 31
-87 69 -121 86 -56 28 -69 31 -140 28 -62 -3 -85 -9 -110 -27 -30 -21 -33 -22
-33 -5 0 10 9 37 19 60 20 43 57 69 116 84 44 10 47 10 105 -7z m-1998 -41
c42 -44 50 -78 55 -248 l5 -160 -58 85 c-31 47 -67 97 -79 111 -38 47 -40 181
-3 227 17 20 53 14 80 -15z m3703 -50 c-4 -43 -10 -81 -13 -85 -18 -17 -141
-78 -144 -71 -2 4 0 54 5 110 l9 102 42 10 c22 5 56 9 75 10 l33 1 -7 -77z
m139 68 c16 -6 9 -15 -45 -65 -58 -53 -64 -56 -67 -35 -2 12 -1 42 3 66 l6 43
42 -1 c23 0 50 -4 61 -8z m-3504 -20 c13 -26 13 -67 -1 -93 -6 -12 -60 -79
-120 -151 -60 -71 -109 -133 -109 -138 0 -5 -4 -9 -10 -9 -6 0 -10 30 -10 71
0 59 6 85 34 149 39 90 78 145 121 172 40 24 81 23 95 -1z m3642 -11 c10 0 18
-4 18 -9 0 -26 -65 -171 -77 -171 -19 0 -75 81 -65 94 57 76 86 106 96 96 5
-5 18 -10 28 -10z m177 -71 c7 -50 10 -94 7 -96 -9 -9 -55 32 -74 67 -11 19
-23 52 -27 72 -7 37 -7 37 32 41 21 2 41 4 44 5 4 1 12 -39 18 -89z m125 52
c14 -12 34 -197 22 -208 -3 -3 -27 3 -55 13 -56 20 -55 19 -67 156 l-7 78 47
-14 c26 -8 53 -19 60 -25z m-761 -116 c-9 -79 -14 -82 -111 -84 -46 -1 -53 1
-48 17 2 9 8 46 11 80 l7 64 72 34 71 34 3 -37 c1 -21 -1 -69 -5 -108z m-1874
58 l45 -26 -47 -12 c-26 -7 -56 -20 -67 -30 -49 -44 -84 -166 -95 -335 -4 -52
-9 -97 -11 -99 -2 -2 -12 3 -22 12 -10 10 -21 14 -24 11 -3 -3 -6 1 -5 8 1 7
-19 53 -43 102 -37 75 -44 98 -44 150 -1 177 175 300 313 219z m2766 -112 c13
-35 23 -66 21 -69 -2 -2 -24 0 -48 5 -42 8 -43 10 -50 53 -3 25 -7 68 -7 95
l0 50 29 -34 c16 -19 41 -64 55 -100z m-4640 80 c49 -22 114 -91 183 -193 29
-42 52 -79 52 -80 0 -2 -66 29 -147 69 -163 79 -193 104 -193 162 0 63 32 76
105 42z m3570 -38 c-4 -32 -10 -61 -14 -65 -3 -4 -30 -4 -60 0 l-53 7 60 58
c33 31 63 57 67 57 4 0 3 -26 0 -57z m7650 -10 c79 -49 145 -52 226 -9 30 16
69 32 88 36 42 11 107 -8 155 -45 45 -34 158 -173 151 -185 -13 -21 -223 -94
-282 -98 l-61 -4 -27 40 c-19 29 -41 46 -71 58 -42 16 -50 16 -129 0 -153 -30
-192 -20 -273 68 -28 32 -52 61 -52 65 0 13 54 59 100 85 63 36 102 33 175
-11z m-9166 -46 l33 -57 -47 -21 c-26 -12 -50 -17 -55 -12 -7 8 -41 125 -37
129 17 13 63 31 68 26 3 -4 21 -33 38 -65z m2016 53 c3 -11 22 -32 41 -48 l35
-29 -17 -67 c-13 -53 -20 -66 -36 -66 -34 0 -74 27 -102 70 l-27 41 42 59 c23
33 45 60 50 60 4 0 10 -9 14 -20z m-3377 -97 c5 -53 -44 -98 -139 -128 -94
-29 -219 -59 -225 -53 -2 3 24 29 59 59 143 126 202 161 262 157 37 -3 40 -5
43 -35z m-748 -48 c90 -29 300 -130 300 -146 0 -13 -56 -11 -204 6 -210 25
-332 60 -356 104 -9 18 -7 25 16 47 24 25 30 26 92 21 37 -3 105 -18 152 -32z
m11023 -20 c27 -31 67 -65 89 -76 43 -22 76 -22 256 -3 75 8 103 -3 131 -52
41 -69 120 -67 305 7 56 23 106 43 113 46 10 4 69 -78 127 -175 9 -15 -241
-141 -343 -172 -108 -34 -153 -25 -206 38 -54 65 -124 77 -251 46 -123 -31
-210 7 -340 152 l-73 80 66 82 c37 45 69 82 72 82 3 0 28 -25 54 -55z m-8839
-45 c16 -39 27 -72 25 -74 -2 -2 -32 -18 -66 -35 l-63 -31 -4 22 c-14 66 -26
130 -26 139 0 10 75 48 95 49 6 0 23 -32 39 -70z m1843 39 c22 -37 71 -69 107
-69 25 0 27 -3 22 -27 -3 -16 -10 -65 -17 -109 l-11 -81 -46 13 c-68 21 -117
58 -159 121 -14 21 -12 28 29 103 23 44 46 80 50 80 4 0 15 -14 25 -31z
m-3629 -164 c19 -42 14 -46 -33 -23 -34 17 -42 25 -33 35 18 22 54 15 66 -12z
m1856 -74 c15 -46 25 -85 24 -86 -6 -6 -168 -85 -173 -85 -3 0 -5 24 -6 53 0
28 -4 74 -8 100 l-8 48 66 34 c36 18 69 30 73 27 3 -4 18 -45 32 -91z m8650 6
c112 -115 161 -142 261 -142 39 0 97 6 130 14 89 21 123 11 188 -54 54 -55 55
-55 116 -55 76 0 144 23 328 111 l143 67 18 -26 c10 -15 42 -66 71 -114 l52
-88 -61 -57 c-78 -73 -160 -129 -208 -143 -70 -19 -168 -12 -266 19 -160 51
-229 61 -430 61 -155 0 -194 3 -248 20 -85 26 -164 78 -270 179 l-87 82 81
110 c44 60 83 109 86 109 3 0 47 -42 96 -93z m-6849 -66 l70 -28 -4 -89 c-1
-49 -4 -90 -6 -92 -7 -8 -132 21 -164 38 -20 10 -58 37 -84 60 -55 49 -55 48
-6 166 l30 72 47 -49 c34 -36 67 -57 117 -78z m-3657 61 c43 -31 43 -67 -2
-121 -34 -40 -46 -39 -46 6 0 8 -13 48 -30 90 -16 41 -30 76 -30 79 0 7 75
-30 108 -54z m88 -183 c33 -113 34 -110 -28 -92 -59 17 -88 38 -88 63 0 18 80
123 88 116 2 -3 15 -42 28 -87z m1819 14 c18 -62 45 -162 45 -167 0 -5 -12
-10 -142 -57 l-108 -38 0 114 0 113 93 45 c50 25 93 46 94 46 1 1 9 -25 18
-56z m1558 -44 c63 -50 101 -67 186 -83 l65 -12 3 -54 c1 -30 5 -70 7 -88 3
-22 0 -35 -8 -38 -19 -7 -191 43 -245 71 -25 14 -61 38 -79 54 -33 28 -33 30
-22 72 6 24 16 61 21 82 5 20 12 37 15 37 2 0 28 -19 57 -41z m-937 -71 c-33
-69 -86 -234 -86 -263 0 -14 -55 -21 -257 -31 l-132 -7 -6 25 c-14 54 28 187
79 253 14 19 15 15 17 -50 2 -118 22 -151 47 -79 30 84 46 114 79 146 l34 33
-7 -62 c-7 -63 0 -113 14 -113 5 0 19 23 32 51 28 58 112 140 173 168 23 11
43 16 45 12 1 -4 -13 -41 -32 -83z m-1047 47 c37 -19 102 -93 148 -168 34 -56
35 -61 28 -123 l-7 -64 -112 0 -113 0 -31 122 c-18 67 -31 123 -29 124 1 1 33
-20 70 -48 37 -28 70 -48 74 -44 3 3 -10 47 -31 98 -35 89 -42 118 -31 118 4
0 19 -7 34 -15z m-1594 -132 c25 -90 26 -106 4 -179 l-9 -31 -103 -2 -104 -2
-37 42 c-36 40 -93 145 -84 155 3 2 25 -12 49 -31 48 -38 70 -43 89 -20 13 15
15 112 4 147 -12 39 6 15 32 -41 14 -33 35 -68 45 -77 18 -16 21 -16 35 -2 8
8 20 45 27 81 6 37 14 64 18 59 4 -4 19 -48 34 -99z m163 71 c94 -27 101 -42
50 -100 -33 -38 -159 -146 -164 -141 -2 2 3 39 11 82 8 44 14 104 15 134 0 44
3 52 15 47 9 -3 41 -13 73 -22z m1922 -116 c6 -24 19 -71 29 -105 l18 -61 -30
-6 c-16 -3 -90 -6 -163 -6 l-134 0 0 59 c0 35 5 63 13 69 14 11 226 91 244 92
7 0 17 -19 23 -42z m1429 1 c21 -16 64 -40 95 -53 l57 -23 -47 -7 c-26 -3 -71
-6 -100 -6 l-54 0 0 60 c0 33 3 60 6 60 3 0 22 -14 43 -31z m-3240 -77 c7 -35
10 -66 7 -69 -2 -3 -53 -7 -113 -10 l-108 -4 45 38 c25 21 67 59 95 85 32 30
52 42 56 35 3 -7 12 -41 18 -75z m5947 -1279 c-4 -208 -9 -379 -11 -381 -1 -1
-9 0 -17 3 -12 5 -14 17 -11 49 7 59 -22 91 -74 83 -29 -5 -36 -2 -45 19 -12
26 -47 40 -73 30 -19 -7 -19 -12 9 70 53 156 209 504 226 504 3 0 1 -170 -4
-377z m818 134 c5 -2 6 -20 2 -40 -6 -35 -8 -36 -29 -25 -24 12 -157 138 -157
148 0 3 39 -14 88 -37 48 -24 91 -44 96 -46z m192 -99 c-3 -17 -6 -37 -6 -44
0 -21 -26 -17 -91 12 -57 26 -59 28 -59 64 0 20 3 39 6 42 3 4 39 -5 81 -19
74 -25 75 -26 69 -55z m1468 -70 c43 -152 86 -280 102 -305 12 -20 12 -23 -4
-32 -25 -13 -246 -81 -264 -81 -9 0 -26 21 -40 48 -20 42 -23 61 -22 167 0
176 34 243 140 285 27 10 51 19 54 20 3 0 18 -46 34 -102z m-1364 73 c19 -5
47 -12 63 -15 24 -6 27 -10 27 -51 0 -41 -2 -45 -24 -45 -12 0 -36 4 -52 9
-16 5 -41 12 -56 15 -29 7 -35 25 -22 74 7 25 13 26 64 13z m267 -48 c12 -5
14 -15 9 -47 -4 -22 -8 -42 -10 -44 -2 -1 -33 0 -70 4 l-66 7 0 50 0 50 61 -7
c33 -4 67 -10 76 -13z m146 -13 c47 0 47 0 47 -34 0 -41 -11 -46 -92 -46 -51
0 -59 2 -54 16 3 9 6 29 6 46 0 27 3 30 23 24 12 -3 43 -6 70 -6z m207 -15 c0
-9 -83 -45 -102 -45 -13 0 -18 8 -18 25 0 24 3 25 60 25 33 0 60 -2 60 -5z
m-1914 -219 c5 -21 -10 -76 -21 -76 -3 0 -17 7 -30 16 -33 22 -35 71 -2 83 29
11 46 4 53 -23z m107 -39 c6 -17 -3 -67 -13 -67 -4 0 -22 3 -39 6 -32 7 -38
22 -21 55 12 22 65 26 73 6z m211 -105 c2 -4 7 -24 11 -45 7 -36 6 -37 -21
-37 -49 0 -79 22 -79 55 0 47 64 67 89 27z m130 -14 c16 -26 24 -72 13 -75 -4
-2 -27 -3 -52 -3 -43 0 -45 1 -45 29 0 20 9 36 26 50 34 26 40 26 58 -1z
m1554 -40 c5 -7 13 -28 17 -45 6 -32 5 -33 -25 -33 -63 0 -88 33 -53 72 19 21
46 23 61 6z m140 -31 c6 -22 10 -43 6 -48 -6 -10 -54 -12 -78 -3 -21 8 -20 53
1 76 27 30 56 19 71 -25z"/>
<path d="M6541 7334 c-13 -9 -29 -31 -37 -49 -42 -100 89 -184 167 -106 63 63
20 171 -68 171 -21 0 -49 -7 -62 -16z m114 -29 c38 -37 30 -101 -14 -124 -16
-9 -18 -6 -13 39 2 27 0 62 -6 79 -13 38 -1 40 33 6z"/>
<path d="M6134 7175 c-4 -8 -3 -22 0 -31 5 -13 9 -14 21 -4 8 7 15 21 15 31 0
23 -28 25 -36 4z"/>
<path d="M7736 6020 c-43 -13 -66 -39 -66 -74 0 -65 71 -136 137 -136 67 0
133 94 104 148 -25 46 -117 79 -175 62z m104 -45 c56 -29 57 -72 4 -114 -20
-15 -36 -20 -54 -16 -30 7 -90 71 -90 96 0 43 83 63 140 34z"/>
<path d="M8089 5961 c-70 -71 -4 -171 114 -171 65 0 97 28 97 87 0 37 -5 50
-30 73 -53 49 -137 54 -181 11z m148 -27 c41 -26 43 -96 3 -109 -32 -10 -100
5 -121 26 -26 26 -25 74 3 93 25 18 78 13 115 -10z"/>
<path d="M8431 5881 c-38 -38 -20 -115 38 -164 54 -45 225 -85 271 -64 48 23
33 95 -33 165 -37 38 -117 70 -197 79 -50 5 -60 3 -79 -16z m175 -42 c55 -21
107 -68 123 -112 18 -48 16 -50 -46 -44 -133 14 -211 56 -234 124 -10 32 -10
38 7 50 22 16 74 10 150 -18z"/>
<path d="M7946 5784 c-24 -23 -21 -95 5 -128 22 -28 66 -35 87 -14 16 16 15
98 -1 119 -13 17 -50 39 -66 39 -5 0 -17 -7 -25 -16z m64 -43 c13 -26 13 -68
-2 -77 -17 -10 -48 33 -48 67 0 22 5 29 20 29 10 0 24 -9 30 -19z"/>
<path d="M8282 5678 c-30 -30 0 -117 50 -148 57 -35 93 -22 118 44 16 42 4 64
-50 91 -53 27 -99 32 -118 13z m96 -38 c43 -20 50 -36 32 -71 -22 -41 -76 -17
-99 44 -20 51 -1 58 67 27z"/>
<path d="M8926 5648 c-11 -9 -20 -32 -23 -59 -6 -54 20 -92 81 -120 83 -38
166 -18 166 40 0 35 -37 97 -71 122 -39 28 -125 37 -153 17z m133 -47 c14 -9
33 -34 44 -55 18 -34 18 -39 4 -53 -14 -14 -23 -15 -71 -4 -84 19 -131 85 -89
126 19 20 75 13 112 -14z"/>
<path d="M8656 5571 c-22 -24 -35 -80 -36 -148 0 -64 18 -79 115 -96 62 -11
66 -10 88 11 19 19 23 35 25 110 4 103 0 110 -87 129 -77 16 -85 16 -105 -6z
m102 -30 l47 -6 0 -85 0 -85 -64 1 c-50 1 -67 5 -77 19 -27 36 7 188 37 169 5
-3 31 -9 57 -13z"/>
<path d="M9206 5388 c-25 -35 -21 -103 6 -122 27 -19 128 -22 146 -4 31 31 6
91 -52 127 -44 27 -81 27 -100 -1z m80 -29 c37 -22 59 -53 49 -69 -8 -13 -71
-13 -96 0 -21 12 -24 27 -9 64 12 31 14 32 56 5z"/>
<path d="M9028 5378 c-59 -45 -35 -168 32 -168 59 0 103 101 64 148 -23 27
-73 38 -96 20z m75 -49 c12 -19 -9 -66 -36 -83 -13 -8 -20 -8 -27 4 -11 18
-13 83 -3 94 12 12 55 2 66 -15z"/>
<path d="M9454 5197 c-27 -24 -27 -25 -12 -50 10 -13 38 -35 63 -47 54 -26 87
-18 106 24 16 33 6 54 -33 70 -68 28 -94 29 -124 3z m123 -39 c16 -13 -1 -38
-26 -38 -25 0 -83 39 -75 51 8 13 81 4 101 -13z"/>
<path d="M9323 5160 c-42 -17 -59 -93 -27 -124 23 -23 89 -21 114 4 56 56 -13
151 -87 120z m65 -67 c3 -28 -1 -33 -22 -39 -36 -9 -56 1 -56 29 0 31 19 48
50 45 20 -2 26 -9 28 -35z"/>
<path d="M9693 5080 c-41 -25 -54 -67 -27 -87 28 -21 136 -13 163 11 25 23 27
58 5 80 -22 23 -101 21 -141 -4z m111 -16 c29 -11 17 -33 -25 -44 -50 -14 -84
-10 -84 10 0 28 69 49 109 34z"/>
<path d="M10494 6376 c-6 -15 33 -189 55 -247 5 -13 10 -28 11 -34 1 -5 20
-45 42 -88 49 -93 160 -218 178 -201 9 9 -1 26 -43 72 -102 110 -147 204 -197
412 -22 90 -35 115 -46 86z"/>
<path d="M10257 6373 c-2 -5 -1 -109 2 -233 5 -191 8 -225 21 -225 13 0 15 29
13 210 -1 116 -5 220 -8 233 -5 22 -20 29 -28 15z"/>
<path d="M9931 6268 c-17 -119 -37 -189 -87 -311 -46 -112 -53 -142 -31 -135
28 10 123 262 141 378 18 112 19 150 4 150 -12 0 -19 -20 -27 -82z"/>
<path d="M9902 7467 c-27 -28 -29 -78 -4 -99 9 -9 37 -25 62 -36 25 -11 60
-31 78 -45 52 -40 68 -25 62 58 -3 51 -36 112 -69 129 -45 24 -103 21 -129 -7z
m121 -27 c25 -20 47 -73 47 -113 0 -18 -2 -18 -32 3 -18 11 -52 30 -76 40 -50
23 -61 43 -37 70 23 26 65 25 98 0z"/>
<path d="M3625 5341 c-36 -15 -76 -64 -87 -107 l-11 -41 -45 31 c-39 28 -53
31 -125 34 -94 3 -134 -13 -163 -69 -26 -51 -22 -149 8 -208 l25 -48 -47 5
c-26 2 -57 -1 -68 -7 -17 -9 -32 -6 -81 19 -137 70 -378 86 -571 38 -132 -33
-248 -82 -342 -144 -101 -67 -270 -238 -358 -364 -130 -185 -315 -350 -459
-411 -136 -57 -243 -79 -387 -79 -182 0 -195 -20 -83 -125 46 -42 99 -74 217
-133 195 -97 340 -146 497 -168 66 -9 121 -17 122 -18 1 -1 -14 -53 -33 -115
-41 -136 -43 -174 -11 -188 12 -5 74 -20 137 -33 63 -13 122 -29 131 -37 9 -7
53 -23 99 -34 144 -37 317 -16 334 39 3 9 1 33 -4 52 -13 47 -13 280 0 280 6
0 36 -11 68 -24 104 -43 157 -51 327 -50 116 1 174 6 210 17 27 9 50 15 52 13
1 -1 -8 -52 -22 -112 -14 -60 -28 -134 -31 -165 -6 -52 -5 -58 17 -72 34 -21
76 -26 238 -28 139 -2 145 -2 163 20 10 13 18 33 18 46 0 30 16 35 114 35 50
0 88 5 99 13 13 10 18 46 27 187 16 264 29 384 43 389 7 2 28 21 48 42 34 37
36 38 75 27 83 -23 345 14 475 66 34 14 78 38 98 53 31 24 45 28 102 28 56 0
71 -4 102 -27 43 -33 48 -34 73 -7 14 16 19 40 22 113 7 145 -21 199 -119 231
-52 18 -58 28 -34 62 24 34 55 169 55 239 0 70 -14 111 -41 119 -28 9 -49 -7
-109 -86 -30 -40 -69 -83 -87 -96 l-31 -24 -38 56 c-20 31 -59 81 -87 111
l-49 54 11 44 c16 65 44 123 95 200 49 75 49 98 0 116 -53 20 -110 12 -188
-29 -41 -21 -88 -43 -104 -49 l-30 -10 -4 106 c-4 83 -9 116 -26 149 -34 66
-63 83 -141 82 -36 0 -75 -4 -86 -8z m153 -47 c39 -27 51 -66 57 -185 l6 -114
-60 -37 c-60 -37 -136 -122 -167 -187 -29 -60 1 -151 59 -183 35 -19 109 -27
149 -17 42 11 59 37 99 146 12 32 25 62 30 67 11 12 96 -53 161 -122 57 -62
107 -133 153 -220 39 -73 87 -113 181 -151 43 -17 88 -36 100 -41 33 -13 54
-70 54 -147 0 -37 -3 -78 -6 -90 l-6 -23 -43 25 c-46 27 -94 33 -167 21 -42
-7 -49 -6 -72 17 -20 20 -26 36 -26 71 0 50 -13 67 -29 37 -22 -40 -13 -89 23
-129 l35 -38 -27 -16 c-85 -49 -342 -103 -453 -95 -37 2 -71 7 -77 11 -6 4 0
25 17 56 22 43 24 52 11 60 -20 13 -27 6 -61 -63 -61 -122 -97 -149 -165 -127
-48 16 -79 59 -93 128 l-12 60 81 81 c44 45 80 88 80 96 0 31 -37 13 -84 -42
-94 -106 -221 -166 -305 -143 -103 27 -75 188 39 230 96 34 260 120 260 135 0
25 -27 18 -159 -45 -131 -62 -163 -69 -234 -49 -94 26 -104 177 -16 240 54 38
138 60 219 57 60 -2 75 0 77 12 3 12 -19 19 -111 32 -156 23 -224 60 -246 137
-16 58 33 135 95 147 41 7 139 -18 254 -67 89 -38 121 -43 121 -19 0 5 -44 30
-97 55 -164 77 -203 122 -203 234 0 51 4 63 29 90 26 28 35 31 90 31 115 0
174 -47 186 -147 9 -70 67 -203 89 -203 23 0 20 26 -11 89 -23 45 -29 73 -32
144 -4 105 15 169 57 192 36 19 122 19 150 -1z m425 -234 c5 -4 -8 -30 -27
-58 -36 -50 -96 -171 -96 -194 -1 -38 -17 -40 -63 -7 l-47 33 35 62 c36 64 43
102 24 121 -17 17 -3 31 49 47 46 15 108 13 125 -4z m-203 -75 c0 -3 -17 -38
-37 -78 -20 -39 -57 -121 -83 -182 l-46 -110 -68 0 c-62 0 -70 2 -92 28 -36
42 -40 73 -17 121 37 74 107 142 195 186 69 34 148 53 148 35z m-1130 -27 c66
-10 180 -54 180 -69 0 -4 -4 -10 -9 -14 -5 -3 -17 -25 -26 -49 -14 -35 -15
-50 -5 -85 14 -53 59 -104 116 -131 l44 -22 -51 -25 c-107 -54 -148 -193 -81
-282 16 -22 37 -33 119 -66 1 -1 -9 -23 -23 -50 -55 -108 10 -216 129 -215 17
1 57 9 87 20 60 20 69 16 70 -30 1 -38 34 -104 65 -128 15 -12 45 -27 66 -34
37 -11 39 -13 34 -47 -10 -71 -25 -267 -25 -323 0 -31 -2 -62 -5 -70 -5 -14
-72 -16 -110 -4 -14 5 -28 0 -44 -15 l-23 -22 7 153 c7 145 7 152 -11 148 -17
-3 -20 -19 -31 -148 -6 -80 -12 -164 -12 -187 -1 -42 -1 -42 -34 -36 -23 3
-37 0 -46 -11 -13 -15 -15 -15 -32 -1 -10 10 -30 15 -46 13 -24 -3 -30 -10
-42 -50 -14 -47 -15 -48 -55 -48 -56 0 -116 18 -116 34 0 27 41 214 70 319 17
60 28 112 25 118 -4 5 -52 9 -108 9 -96 0 -281 19 -537 55 -81 11 -117 12
-124 5 -7 -7 -12 -87 -14 -210 -4 -182 -5 -199 -20 -191 -20 10 -40 4 -64 -16
-15 -13 -19 -13 -40 1 -49 35 -98 10 -98 -51 0 -34 -1 -34 -32 -28 -64 13 -98
27 -107 44 -6 10 -17 80 -25 157 -25 223 -16 202 -89 208 -34 3 -116 10 -182
15 -140 12 -242 37 -378 92 -185 74 -331 155 -396 220 l-34 34 149 6 c132 5
160 10 249 39 123 40 202 79 280 138 96 74 226 210 306 323 144 202 301 344
469 422 202 94 393 121 610 85z m1624 -294 c12 -31 6 -112 -14 -189 -22 -86
-42 -125 -65 -125 -20 0 -80 54 -104 95 l-20 34 45 36 c24 20 65 65 90 101 48
67 58 74 68 48z m-2114 -1080 c0 -42 -1 -45 -22 -39 -37 11 -50 29 -42 58 5
22 12 27 35 27 28 0 29 -2 29 -46z m113 26 c14 0 17 -9 17 -54 0 -30 -3 -57
-7 -59 -5 -3 -24 0 -43 7 -31 10 -35 15 -38 50 -5 53 3 70 31 62 12 -3 30 -6
40 -6z m175 -25 c3 -2 1 -30 -3 -61 l-7 -56 -30 6 c-17 3 -41 6 -54 6 -23 0
-24 3 -24 61 l0 62 57 -7 c31 -4 59 -9 61 -11z m136 -11 c11 -4 16 -19 16 -49
0 -40 -2 -43 -31 -49 -17 -3 -45 -6 -61 -6 -27 0 -30 3 -24 23 3 12 6 37 6 55
0 31 2 32 39 32 22 0 46 -3 55 -6z m202 -20 c-3 -9 -6 -20 -6 -24 0 -13 -123
-50 -134 -40 -5 5 -5 25 -2 44 l7 36 71 0 c60 0 69 -2 64 -16z m-1185 -19 c4
-3 10 -40 14 -82 3 -43 9 -88 12 -100 4 -19 1 -23 -20 -23 -29 0 -43 -14 -52
-53 -6 -23 -12 -28 -29 -23 -11 3 -38 9 -59 12 -21 4 -41 13 -44 20 -3 7 12
70 33 140 l38 126 50 -7 c27 -3 53 -8 57 -10z m19 -266 c0 -22 -5 -29 -20 -29
-23 0 -28 38 -8 58 16 16 28 5 28 -29z m1614 15 c13 -35 7 -54 -19 -54 -21 0
-25 5 -25 28 0 16 3 32 7 35 11 12 31 7 37 -9z m86 -30 c0 -17 -6 -24 -19 -24
-24 0 -31 18 -20 49 8 19 12 21 24 11 8 -7 15 -23 15 -36z m-163 -26 c-3 -8
-6 -5 -6 6 -1 11 2 17 5 13 3 -3 4 -12 1 -19z m-1237 -38 c0 -27 -3 -30 -30
-30 -27 0 -30 3 -30 34 0 37 15 49 43 34 10 -5 17 -20 17 -38z m119 20 c11
-33 11 -33 -41 -44 -32 -7 -36 6 -16 49 16 35 44 32 57 -5z m939 -22 c7 -7 12
-22 12 -35 0 -18 -6 -23 -25 -23 -21 0 -25 5 -25 28 0 41 15 53 38 30z m117
-19 c8 -24 -1 -36 -30 -41 -20 -3 -31 21 -21 48 8 22 44 17 51 -7z"/>
<path d="M3984 4406 c-29 -29 -34 -41 -34 -79 0 -147 219 -150 223 -3 2 69
-46 116 -119 116 -28 0 -44 -8 -70 -34z m48 -32 c-12 -37 -13 -55 -4 -88 6
-22 9 -43 7 -45 -2 -2 -18 10 -35 27 -53 54 -32 124 46 152 1 0 -6 -21 -14
-46z"/>
<path d="M4500 4212 c0 -10 6 -27 14 -38 12 -15 17 -16 27 -7 10 10 10 18 1
38 -13 29 -42 34 -42 7z"/>
<path d="M2601 4937 c-29 -17 -50 -53 -51 -86 0 -53 130 -131 218 -131 112 1
203 109 143 169 -45 45 -259 78 -310 48z m221 -37 c20 -6 47 -19 59 -29 57
-46 -37 -128 -134 -117 -54 6 -143 50 -159 79 -14 26 -3 62 24 75 26 14 151 9
210 -8z"/>
<path d="M2342 4847 c-33 -15 -68 -90 -87 -185 -30 -145 -1 -176 162 -177 72
0 85 3 105 22 27 27 35 110 19 198 -14 74 -34 103 -91 133 -49 24 -73 26 -108
9z m114 -44 c37 -24 56 -75 62 -169 4 -73 3 -83 -17 -103 -16 -16 -33 -21 -68
-21 -73 1 -135 16 -150 36 -16 22 -10 79 18 176 30 104 80 130 155 81z"/>
<path d="M2622 4712 c-18 -12 -26 -72 -13 -105 14 -37 51 -50 98 -34 56 18 54
44 -6 100 -52 49 -58 52 -79 39z m68 -67 l33 -34 -24 -9 c-42 -16 -69 3 -69
51 0 37 19 34 60 -8z"/>
<path d="M2082 4663 c-30 -15 -64 -50 -165 -176 -63 -78 -64 -110 -4 -137 58
-27 146 -27 179 0 36 28 59 92 65 181 9 126 -12 163 -75 132z m48 -90 c0 -37
-7 -93 -17 -126 -21 -77 -43 -92 -124 -84 -61 5 -89 19 -89 43 0 31 184 234
212 234 16 0 18 -9 18 -67z"/>
<path d="M2806 4599 c-63 -50 -74 -128 -25 -184 40 -45 83 -48 121 -7 35 37
48 65 48 102 0 88 -81 138 -144 89z m91 -31 c32 -30 31 -81 -3 -125 -31 -41
-64 -43 -93 -7 -23 30 -27 64 -10 97 32 61 66 72 106 35z"/>
<path d="M2226 4448 c-35 -49 -9 -128 42 -128 33 0 87 31 101 59 14 25 -1 66
-28 80 -36 20 -98 13 -115 -11z m108 -23 c8 -9 13 -22 9 -31 -6 -16 -54 -44
-77 -44 -18 0 -30 34 -22 66 5 19 13 24 40 24 19 0 41 -7 50 -15z"/>
<path d="M1733 4288 c-23 -24 -49 -60 -58 -80 -13 -33 -14 -42 -1 -72 20 -49
57 -70 108 -63 54 7 88 33 116 87 27 55 28 80 1 114 -21 27 -77 56 -108 56 -9
0 -36 -19 -58 -42z m101 -3 c52 -22 64 -54 40 -106 -20 -46 -64 -79 -105 -79
-44 0 -80 42 -71 86 4 24 77 114 92 114 4 0 24 -7 44 -15z"/>
<path d="M5200 5261 c-19 -10 -49 -39 -67 -65 l-32 -47 -25 39 c-29 46 -69 74
-109 76 -48 2 -57 -25 -27 -80 28 -54 82 -93 143 -105 80 -14 179 50 207 136
21 62 -20 84 -90 46z m70 -16 c0 -3 -9 -23 -20 -45 -21 -41 -82 -90 -113 -90
-16 0 -16 2 2 38 24 47 84 102 111 102 11 0 20 -2 20 -5z m-270 -20 c33 -17
80 -80 80 -108 0 -17 -3 -17 -41 5 -57 32 -114 118 -79 118 6 0 24 -7 40 -15z"/>
<path d="M1790 5148 c-11 -18 -22 -37 -24 -43 -3 -9 -20 -2 -95 42 -16 10 -33
14 -37 10 -4 -4 11 -46 34 -94 l41 -88 121 0 122 0 34 95 c19 52 34 96 34 98
0 1 -8 2 -17 2 -10 0 -38 -16 -63 -36 l-44 -35 -28 33 c-15 18 -28 36 -28 41
0 19 -32 3 -50 -25z m97 -88 c4 0 21 12 40 26 19 14 36 24 37 23 2 -2 -5 -28
-17 -56 l-20 -53 -98 0 c-97 0 -99 0 -112 28 -8 15 -18 37 -22 50 l-7 23 34
-21 c45 -27 51 -26 77 21 l23 40 30 -40 c16 -23 32 -41 35 -41z"/>
<path d="M825 5003 c-16 -9 -54 -38 -83 -64 -51 -47 -56 -49 -113 -49 -50 0
-61 -3 -73 -22 -17 -28 -36 -115 -36 -167 0 -76 36 -83 355 -70 282 11 317 20
323 73 7 61 -49 212 -92 247 -69 58 -218 86 -281 52z m146 -19 c30 -9 58 -20
63 -24 5 -5 -8 -38 -32 -77 -41 -67 -82 -170 -82 -203 0 -23 -37 -28 -211 -30
-113 -1 -138 2 -149 15 -17 21 -7 148 15 181 13 21 21 23 54 18 46 -7 85 10
145 67 49 44 92 69 122 69 11 0 45 -7 75 -16z m139 -75 c8 -13 3 -29 -21 -67
-19 -31 -35 -75 -42 -116 l-11 -66 -49 0 -49 0 7 33 c9 44 57 147 95 201 32
47 51 51 70 15z m54 -142 c9 -37 14 -72 11 -77 -6 -10 -70 -30 -98 -30 -16 0
-18 5 -12 43 8 47 28 100 52 136 19 30 24 22 47 -72z"/>
<path d="M6027 4891 c-20 -16 -74 -40 -119 -54 -102 -32 -170 -74 -187 -115
-12 -28 -17 -30 -45 -26 -67 11 -75 15 -88 41 -40 81 -154 116 -241 74 -53
-25 -83 -56 -117 -119 -14 -25 -36 -52 -49 -59 -54 -26 -68 -104 -25 -144 l25
-24 212 5 c117 2 237 3 267 1 30 -1 189 -3 353 -4 297 -2 299 -2 317 20 21 26
36 144 22 169 -5 10 -34 33 -63 53 -29 20 -70 60 -90 89 -48 70 -99 122 -120
122 -9 0 -33 -13 -52 -29z m108 -58 l45 -58 -33 -25 c-85 -66 -113 -123 -104
-214 l4 -48 -168 4 c-215 5 -216 6 -171 108 18 38 32 76 32 84 0 42 106 111
200 131 42 9 77 26 109 54 13 12 28 21 32 21 5 0 29 -26 54 -57z m-628 -54
c19 -12 45 -39 58 -60 19 -30 33 -39 62 -44 75 -12 76 -13 48 -73 -14 -30 -25
-62 -25 -72 0 -18 -50 -30 -126 -30 -31 0 -34 3 -48 51 -20 68 -46 107 -106
163 l-50 46 33 20 c43 27 110 26 154 -1z m713 -58 c0 -4 -13 -14 -29 -24 -40
-23 -61 -74 -61 -146 0 -58 -1 -61 -24 -61 -26 0 -36 21 -36 78 0 51 23 94 75
140 37 33 51 40 61 31 8 -6 14 -14 14 -18z m-838 -59 c28 -31 78 -132 78 -157
0 -3 -18 -5 -39 -5 -34 0 -40 3 -46 28 -11 46 -54 110 -85 129 -35 20 -36 25
-14 58 l16 25 28 -20 c15 -10 43 -37 62 -58z m902 9 c3 -5 -7 -14 -23 -21 -53
-21 -65 -43 -58 -105 5 -54 5 -56 -16 -53 -20 3 -22 10 -25 67 -3 62 -3 64 38
102 34 32 44 37 60 29 10 -6 21 -14 24 -19z m-987 -63 c20 -21 53 -87 53 -105
0 -5 -21 -8 -47 -8 -47 0 -48 1 -51 34 -2 19 -10 44 -18 57 -12 17 -13 27 -4
43 12 24 30 19 67 -21z m1026 -39 l-8 -64 -37 -3 c-35 -3 -37 -1 -43 31 -4 19
-5 43 -3 53 4 21 79 65 91 54 4 -4 4 -36 0 -71z m-1119 6 c22 -34 21 -75 -2
-75 -35 0 -53 41 -36 84 9 22 19 20 38 -9z"/>
<path d="M12595 4627 c-76 -43 -109 -127 -84 -215 18 -68 111 -158 209 -204
69 -33 220 -78 262 -78 10 0 18 7 18 18 0 13 -22 23 -104 44 -132 34 -202 67
-270 129 -86 79 -107 167 -54 234 44 56 135 72 207 36 43 -22 129 -87 184
-139 l37 -36 0 31 c0 27 -11 40 -82 97 -45 36 -101 75 -125 86 -60 28 -145 27
-198 -3z"/>
<path d="M11930 4266 c-131 -70 -148 -221 -37 -324 99 -91 214 -122 455 -122
l174 0 -60 -45 c-33 -25 -106 -86 -161 -136 l-102 -91 -57 35 c-138 84 -221
114 -348 123 -113 9 -167 -1 -210 -38 -46 -40 -64 -77 -64 -129 0 -89 60 -147
178 -169 82 -16 168 -3 307 49 l104 38 -25 -31 c-86 -107 -116 -151 -150 -219
-24 -49 -44 -77 -55 -77 -34 0 -144 -65 -203 -121 -105 -98 -148 -206 -126
-314 15 -71 47 -109 111 -130 43 -15 57 -15 96 -5 57 17 139 90 178 162 29 52
30 57 30 193 0 115 -3 146 -18 172 -17 33 -17 33 19 105 32 64 143 222 151
215 1 -2 -11 -37 -27 -79 -16 -41 -35 -115 -41 -164 -21 -155 2 -239 81 -292
29 -20 44 -23 93 -20 71 5 104 27 137 94 22 42 25 62 25 144 -1 109 -24 189
-101 349 l-45 93 77 72 c80 74 244 206 255 206 4 0 1 -21 -7 -47 -26 -85 -46
-244 -39 -313 14 -139 58 -282 104 -334 42 -48 145 -76 205 -56 89 29 136 102
136 209 0 154 -81 305 -269 504 -60 63 -72 80 -60 88 49 32 216 121 282 149
55 24 77 39 77 52 0 17 -3 17 -52 -3 -80 -30 -226 -104 -286 -144 l-54 -35
-21 27 c-134 172 -228 265 -317 316 -121 69 -259 86 -340 43z m201 -32 c87
-26 165 -73 237 -143 81 -79 187 -209 178 -218 -3 -3 -72 -8 -153 -11 -224 -7
-350 20 -447 94 -57 43 -79 85 -80 147 0 58 23 92 84 124 51 27 105 29 181 7z
m541 -491 c128 -133 215 -270 244 -385 32 -124 3 -212 -82 -250 -37 -16 -50
-17 -85 -8 -89 24 -118 63 -154 206 -32 124 -33 245 -4 384 12 55 25 100 28
100 4 0 27 -21 53 -47z m-774 -89 c61 -14 149 -53 226 -102 l40 -25 -45 -22
c-276 -140 -517 -137 -560 5 -14 47 -2 84 40 124 46 44 159 52 299 20z m348
-215 c60 -120 96 -232 101 -319 6 -102 -8 -162 -46 -201 -55 -55 -146 -44
-195 24 -29 39 -34 183 -12 281 17 71 103 266 117 266 5 0 20 -23 35 -51z
m-329 -375 c13 -21 17 -50 17 -143 1 -107 -1 -120 -27 -173 -51 -104 -150
-172 -224 -153 -75 19 -109 78 -100 176 9 105 87 209 211 283 72 43 99 45 123
10z"/>
<path d="M10525 4011 c-75 -34 -138 -122 -166 -234 -9 -39 -15 -47 -28 -41 -9
4 -37 9 -63 12 -42 3 -51 1 -78 -26 -19 -19 -32 -45 -36 -71 l-7 -41 -61 0
c-40 0 -69 -6 -84 -16 -20 -14 -22 -21 -16 -61 6 -41 4 -47 -26 -78 -19 -20
-32 -44 -32 -58 0 -36 37 -84 85 -110 37 -19 58 -22 187 -24 185 -2 249 -8
346 -34 44 -12 84 -22 89 -23 6 -1 15 -5 21 -8 5 -4 41 -12 79 -19 135 -23
283 8 363 77 35 30 40 39 44 89 4 48 10 61 41 93 21 21 37 46 37 56 0 48 -49
86 -124 95 l-50 6 3 53 c7 130 -98 212 -196 153 -35 -22 -43 -19 -43 19 0 15
-14 55 -31 89 -55 109 -153 149 -254 102z m151 -27 c18 -9 47 -36 63 -61 81
-122 59 -322 -48 -432 -78 -80 -158 -90 -227 -29 -31 28 -34 35 -34 87 0 41
-7 69 -26 105 -31 59 -29 106 12 196 56 125 163 180 260 134z m295 -207 c48
-36 65 -156 33 -233 -61 -147 -194 -180 -234 -58 -10 30 -9 42 10 86 12 27 25
75 30 106 8 46 16 62 42 85 35 29 90 36 119 14z m-665 -63 c35 -17 74 -58 74
-77 0 -6 -10 -1 -23 11 -13 12 -29 22 -36 22 -18 0 -5 -49 19 -74 19 -19 20
-19 40 -1 20 18 20 18 20 -43 0 -78 -28 -117 -83 -115 -123 3 -190 221 -86
279 31 17 35 17 75 -2z m52 -86 c14 -14 16 -28 2 -28 -5 0 -14 9 -20 20 -12
22 -1 27 18 8z m-195 -90 c7 -22 4 -35 -12 -62 -44 -71 -30 -81 145 -106 329
-45 591 -51 689 -14 58 23 68 48 37 91 -20 27 -20 27 1 70 19 38 25 43 54 43
37 0 82 -20 103 -45 11 -14 9 -20 -17 -48 -42 -44 -53 -69 -53 -116 0 -23 -4
-41 -9 -41 -5 0 -33 -15 -62 -32 -50 -32 -56 -33 -161 -33 -59 0 -108 -4 -108
-8 0 -5 50 -7 111 -5 101 3 108 2 77 -11 -46 -19 -190 -17 -263 2 -33 9 -93
26 -133 36 -113 31 -227 44 -332 36 -111 -7 -180 5 -227 41 -48 37 -51 60 -11
101 29 30 33 40 31 83 -2 55 4 59 86 50 38 -4 46 -9 54 -32z m620 -125 c22
-25 74 -39 105 -29 11 4 37 18 58 32 34 23 38 24 53 9 14 -14 14 -17 1 -25
-56 -36 -243 -44 -495 -20 -124 11 -214 27 -163 29 9 1 30 13 47 27 29 24 32
25 48 8 32 -32 102 -56 141 -49 48 9 101 37 132 69 l24 27 14 -28 c8 -15 24
-38 35 -50z m-577 46 c3 -6 20 -19 38 -30 25 -15 27 -19 11 -19 -11 0 -37 5
-57 10 -34 10 -36 13 -25 30 13 23 23 25 33 9z m874 -179 c-35 -24 -54 -31
-30 -11 14 11 30 21 35 21 6 0 3 -5 -5 -10z"/>
<path d="M10662 3938 c-25 -25 -8 -108 23 -108 30 0 57 67 37 96 -11 18 -47
25 -60 12z m45 -39 c2 -8 -2 -21 -7 -29 -8 -12 -11 -13 -19 -1 -11 17 -2 53
13 48 6 -2 12 -10 13 -18z"/>
<path d="M10528 3918 c-20 -15 -41 -66 -32 -79 10 -17 43 -9 59 14 33 51 15
97 -27 65z m15 -38 c-6 -24 -23 -37 -23 -18 0 12 18 38 26 38 1 0 0 -9 -3 -20z"/>
<path d="M10424 3765 c-30 -47 6 -96 45 -61 25 23 28 71 5 80 -26 10 -33 7
-50 -19z m46 -20 c0 -15 -26 -32 -36 -23 -2 3 -2 13 2 22 8 20 34 21 34 1z"/>
<path d="M10597 3773 c-11 -10 -8 -62 3 -84 22 -40 70 -12 70 40 0 30 -54 63
-73 44z m47 -40 c9 -23 -12 -43 -24 -23 -5 8 -10 21 -10 28 0 18 27 15 34 -5z"/>
<path d="M10712 3691 c-18 -11 -5 -81 14 -81 21 0 40 48 28 68 -13 20 -25 24
-42 13z"/>
<path d="M10486 3588 c-26 -37 -18 -88 15 -88 24 0 41 33 37 73 -4 39 -30 47
-52 15z m34 -22 c0 -23 -11 -46 -20 -41 -10 6 0 55 11 55 5 0 9 -6 9 -14z"/>
<path d="M10620 3546 c0 -40 24 -65 48 -49 39 24 21 83 -24 83 -21 0 -24 -5
-24 -34z m45 -9 c0 -26 -20 -25 -23 2 -3 16 1 22 10 19 7 -3 13 -12 13 -21z"/>
<path d="M10906 3761 c-8 -12 9 -57 24 -66 16 -10 40 14 40 40 0 15 -8 25 -22
29 -31 8 -36 8 -42 -3z m48 -19 c2 -4 0 -14 -5 -22 -8 -13 -10 -13 -19 0 -5 8
-10 18 -10 23 0 10 28 9 34 -1z"/>
<path d="M10838 3683 c-24 -6 -23 -45 1 -67 35 -32 60 -4 45 52 -6 22 -13 24
-46 15z m32 -38 c0 -29 -15 -33 -29 -6 -11 20 -5 31 16 31 7 0 13 -11 13 -25z"/>
<path d="M10938 3653 c-2 -5 -3 -32 -3 -60 0 -46 -2 -52 -17 -47 -10 3 -21 -2
-26 -13 -13 -24 -10 -85 5 -90 13 -5 53 49 53 71 0 9 5 16 11 16 31 0 67 98
42 113 -18 10 -62 16 -65 10z m36 -19 c19 -7 20 -42 2 -66 -20 -28 -26 -22
-26 27 0 48 0 48 24 39z m-44 -128 c0 -7 -6 -20 -12 -29 -11 -15 -13 -14 -12
13 1 16 2 33 3 36 2 10 21 -7 21 -20z"/>
<path d="M10805 3540 c-12 -20 4 -62 23 -58 23 4 24 61 0 66 -9 2 -19 -2 -23
-8z m29 -25 c-4 -8 -8 -15 -10 -15 -2 0 -4 7 -4 15 0 8 4 15 10 15 5 0 7 -7 4
-15z"/>
<path d="M10221 3696 c-18 -22 -9 -51 17 -54 21 -3 23 0 20 29 -3 37 -19 47
-37 25z m29 -21 c0 -8 -4 -15 -10 -15 -5 0 -10 7 -10 15 0 8 5 15 10 15 6 0
10 -7 10 -15z"/>
<path d="M10210 3585 c0 -28 42 -95 61 -95 12 0 18 12 22 43 7 49 2 56 -46 64
-31 5 -37 3 -37 -12z m65 -15 c2 -3 1 -19 -3 -35 l-8 -28 -21 35 c-12 20 -19
38 -17 41 7 6 43 -3 49 -13z"/>
<path d="M10331 3536 c-9 -11 -9 -19 1 -35 24 -39 58 -21 58 30 0 23 -41 27
-59 5z m35 -34 c-4 -3 -12 0 -19 7 -9 9 -9 14 3 21 11 7 16 5 18 -6 2 -9 1
-18 -2 -22z"/>
<path d="M10076 3500 c-14 -17 -26 -40 -26 -49 0 -46 67 -91 155 -104 29 -5
21 0 -30 17 -63 22 -115 60 -115 86 0 5 12 23 26 40 15 17 24 33 21 36 -2 3
-16 -9 -31 -26z"/>
<path d="M11060 3487 c0 -4 7 -19 16 -32 21 -32 12 -84 -19 -113 -12 -12 -45
-31 -72 -44 -43 -20 -65 -23 -160 -22 -90 1 -102 -1 -65 -8 166 -33 340 42
340 148 0 26 -39 95 -40 71z"/>
<path d="M10002 3411 c-8 -21 -7 -34 1 -45 14 -18 79 -46 104 -45 10 0 -2 8
-27 17 -68 26 -73 30 -65 68 7 42 1 44 -13 5z"/>
<path d="M10503 3304 c10 -11 207 -32 207 -23 0 4 -37 10 -82 13 -46 4 -94 10
-108 13 -14 3 -21 2 -17 -3z"/>
<path d="M5670 3671 c-14 -5 -44 -18 -68 -30 -42 -22 -43 -23 -28 -44 19 -26
22 -33 30 -69 7 -33 23 -35 75 -9 42 22 111 93 111 115 0 36 -62 54 -120 37z
m80 -36 c0 -24 -93 -107 -104 -94 -2 2 -10 19 -19 37 l-16 33 32 14 c31 14
107 20 107 10z"/>
<path d="M563 3575 c-61 -31 -120 -98 -163 -183 -33 -67 -78 -241 -87 -339 -3
-34 -9 -67 -13 -74 -7 -10 -35 -10 -137 -1 -160 15 -163 15 -163 -2 0 -15 25
-20 155 -31 141 -12 139 -3 31 -115 -75 -79 -103 -117 -140 -190 l-46 -92 0
-140 0 -140 31 -29 c105 -98 256 -35 321 134 21 56 23 77 22 222 -1 106 -7
185 -18 235 -9 41 -16 80 -16 86 0 8 30 7 103 -3 101 -14 348 -61 355 -67 2
-2 -36 -44 -85 -93 -139 -141 -225 -311 -227 -450 -1 -64 2 -76 29 -114 41
-58 84 -82 149 -82 87 0 146 46 192 150 49 110 54 254 18 471 -9 52 -14 95
-12 98 18 17 346 -122 459 -195 l47 -30 -60 -63 c-79 -84 -179 -218 -212 -283
-54 -105 -71 -236 -42 -306 31 -74 118 -125 191 -114 68 10 128 55 159 118 34
68 66 220 66 312 0 61 -25 211 -45 275 -4 14 -3 21 3 19 19 -7 165 -126 242
-198 l75 -69 -31 -58 c-18 -33 -49 -104 -70 -159 -35 -92 -38 -108 -39 -205 0
-97 2 -109 27 -151 63 -107 209 -107 272 0 42 72 29 272 -25 399 -11 25 -18
47 -16 49 9 8 111 -137 143 -204 35 -71 35 -72 17 -100 -14 -21 -19 -52 -22
-139 -4 -134 11 -189 70 -264 97 -123 233 -135 313 -27 30 41 29 163 -1 230
-43 92 -181 213 -274 238 -42 11 -46 16 -78 85 -19 40 -62 108 -96 151 -35 43
-62 79 -61 80 1 1 44 -14 96 -34 212 -80 380 -63 444 46 43 74 14 166 -66 211
-37 21 -55 24 -128 23 -143 -2 -234 -31 -383 -120 l-57 -34 -93 83 c-50 46
-118 103 -150 128 l-57 45 187 6 c104 4 206 12 228 19 98 30 200 102 231 161
18 36 18 132 -1 168 -37 73 -112 106 -222 99 -60 -4 -88 -12 -156 -46 -100
-50 -171 -111 -273 -239 -43 -54 -79 -99 -80 -101 -1 -2 -45 21 -97 52 -106
63 -153 85 -282 131 l-89 33 44 7 c108 17 251 58 317 90 194 96 264 277 145
377 -93 78 -197 61 -341 -56 -90 -72 -153 -154 -213 -276 -29 -58 -53 -107
-55 -109 -1 -2 -49 6 -105 18 -57 12 -152 30 -212 39 l-108 17 74 38 c96 49
175 111 241 192 112 135 136 216 95 307 -46 100 -146 133 -245 83z m142 -29
c66 -28 99 -117 71 -191 -32 -82 -141 -210 -236 -275 -63 -43 -178 -103 -189
-98 -10 4 14 162 38 260 36 140 109 255 190 298 44 23 80 25 126 6z m681 -241
c62 -37 82 -110 48 -181 -21 -45 -94 -109 -164 -144 -67 -34 -240 -79 -333
-87 l-69 -6 37 74 c52 102 104 176 161 229 148 137 231 167 320 115z m658
-359 c46 -35 59 -67 53 -131 -4 -44 -10 -54 -56 -96 -53 -49 -125 -83 -215
-100 -54 -10 -314 -10 -359 0 l-28 6 78 95 c118 141 183 194 295 236 89 34
180 30 232 -10z m-1724 -138 c7 -40 15 -130 17 -199 5 -110 3 -136 -15 -196
-28 -90 -68 -145 -123 -167 -50 -20 -95 -15 -133 15 -78 62 -74 183 11 354 20
38 44 81 55 95 27 35 161 170 168 170 4 0 13 -33 20 -72z m517 -94 c43 -252
19 -427 -70 -522 -62 -64 -148 -63 -206 3 -40 46 -47 91 -27 173 30 120 95
237 186 335 46 48 88 86 94 84 6 -2 16 -35 23 -73z m566 -259 c9 -38 19 -100
23 -137 12 -116 -28 -311 -78 -380 -42 -60 -142 -81 -194 -42 -57 42 -69 69
-68 152 1 127 54 232 213 418 52 61 76 82 81 73 4 -8 15 -45 23 -84z m924 -42
c51 -24 75 -67 70 -126 -2 -26 -12 -56 -22 -67 -47 -52 -200 -66 -320 -29 -82
25 -235 89 -235 98 0 8 114 74 165 96 104 44 278 59 342 28z m-506 -256 c74
-152 96 -299 61 -402 -13 -39 -24 -54 -52 -67 -72 -35 -136 -14 -172 55 -31
59 -30 185 1 277 24 67 101 240 108 240 2 0 26 -46 54 -103z m355 -326 c75
-49 128 -102 165 -166 24 -42 29 -61 29 -118 0 -47 -5 -78 -17 -98 -19 -32
-68 -59 -107 -59 -65 0 -149 71 -190 159 -17 38 -21 64 -20 156 0 61 6 122 12
138 17 39 56 36 128 -12z"/>
<path d="M5384 3576 c-29 -13 -85 -47 -126 -75 -41 -28 -135 -75 -208 -106
-171 -70 -201 -98 -170 -155 14 -26 287 -202 410 -265 56 -28 108 -32 149 -10
32 16 41 33 41 76 0 23 -13 44 -51 84 -44 47 -49 56 -34 61 20 8 89 -6 150
-30 88 -34 175 -12 201 49 27 65 12 109 -49 142 -25 14 -57 18 -142 18 -103 0
-110 1 -110 20 0 15 10 23 40 30 60 16 82 31 94 68 32 97 -76 148 -195 93z
m151 -26 c23 -19 19 -66 -7 -84 -12 -9 -30 -16 -40 -16 -57 0 -100 -55 -74
-95 14 -22 23 -24 140 -27 116 -3 126 -5 151 -28 20 -19 25 -30 20 -50 -20
-82 -71 -95 -203 -51 -106 35 -119 37 -150 15 -34 -23 -27 -50 28 -108 56 -59
62 -88 25 -112 -37 -24 -85 -13 -179 42 -139 80 -336 213 -343 230 -9 23 9 35
165 100 74 32 164 78 200 102 112 77 172 104 215 99 21 -3 44 -11 52 -17z"/>
<path d="M8420 3480 c-11 -22 -25 -40 -30 -40 -5 0 -31 14 -59 31 -27 17 -54
28 -59 25 -6 -4 7 -43 31 -96 l42 -90 120 0 120 0 33 89 c17 48 32 93 32 100
0 21 -32 11 -74 -24 -24 -19 -45 -35 -48 -35 -3 0 -17 18 -32 40 -14 22 -33
40 -41 40 -8 0 -24 -18 -35 -40z m90 -72 c0 -15 22 -8 56 18 39 30 40 29 17
-37 l-18 -49 -101 0 -102 0 -18 43 c-10 23 -20 46 -23 51 -2 5 13 -1 33 -13
44 -28 61 -23 83 24 l17 36 28 -33 c15 -18 28 -36 28 -40z"/>
<path d="M5804 3303 c-18 -3 -22 -13 -27 -66 -7 -80 2 -91 66 -84 58 7 150 55
155 80 10 50 -99 89 -194 70z m134 -44 c18 -6 30 -15 26 -20 -10 -16 -63 -39
-109 -48 l-45 -8 2 41 c2 22 8 44 13 49 11 8 61 2 113 -14z"/>
<path d="M7260 3123 c-42 -17 -91 -56 -106 -85 -16 -31 -16 -32 14 -57 17 -14
33 -36 37 -48 10 -34 30 -28 68 20 45 55 79 123 75 150 -2 17 -10 22 -38 24
-19 1 -42 -1 -50 -4z m39 -65 c-12 -24 -30 -55 -40 -70 l-19 -26 -31 30 c-28
29 -29 32 -13 49 18 20 92 59 112 59 9 0 6 -13 -9 -42z"/>
<path d="M4194 3105 c-65 -21 -104 -44 -178 -108 -86 -74 -149 -103 -244 -112
-170 -15 -242 -78 -242 -211 0 -90 42 -142 152 -185 74 -29 166 -34 273 -15
116 21 198 21 215 1 19 -23 5 -97 -46 -247 -67 -195 -94 -281 -94 -300 0 -15
-9 -18 -50 -18 -28 0 -67 7 -86 15 -29 12 -40 12 -57 3 -12 -7 -33 -14 -47
-15 -26 -2 -60 -35 -60 -58 0 -6 -9 -20 -19 -29 -19 -17 -47 -104 -36 -114 3
-3 26 4 50 16 25 12 47 22 48 22 2 0 2 -15 0 -32 -2 -22 3 -41 17 -58 l20 -25
31 35 c24 27 30 30 25 13 -17 -54 -10 -100 18 -137 27 -36 46 -40 46 -8 0 11
7 5 20 -15 33 -55 80 -67 80 -21 0 22 37 88 49 88 3 0 15 -17 26 -37 11 -21
61 -78 111 -128 121 -121 241 -190 414 -241 l75 -21 67 -144 c104 -222 103
-201 28 -311 -81 -120 -136 -185 -161 -193 -16 -5 -28 1 -47 24 -17 19 -43 34
-67 40 -22 5 -55 15 -73 23 -31 12 -37 11 -99 -22 -92 -49 -113 -71 -113 -117
0 -53 10 -66 43 -54 24 9 26 8 32 -22 11 -47 13 -49 48 -30 25 14 56 18 139
18 60 0 107 -2 105 -5 -39 -69 -34 -94 18 -84 40 7 41 5 20 -37 -20 -38 -12
-51 23 -38 15 6 56 12 92 14 36 2 81 7 101 10 29 6 50 0 104 -26 110 -53 137
-27 191 176 32 120 60 178 109 225 79 75 82 118 21 268 -46 111 -60 155 -70
232 l-6 45 116 28 c251 60 393 118 644 262 336 192 434 225 684 230 116 2 161
7 167 16 12 20 2 29 -65 59 -120 54 -185 65 -376 64 -153 0 -189 -4 -285 -27
-220 -52 -427 -56 -602 -11 -93 24 -273 99 -489 203 -294 143 -370 202 -414
318 -31 83 -34 147 -15 319 29 261 6 377 -88 445 -76 55 -199 74 -293 44z
m240 -62 c91 -50 129 -160 110 -324 l-9 -73 -60 -23 c-86 -33 -105 -44 -105
-64 0 -21 13 -26 90 -35 60 -7 61 -7 58 -36 -3 -25 -11 -32 -62 -53 -68 -27
-91 -47 -83 -68 6 -16 27 -22 115 -32 67 -9 67 -23 -1 -73 -62 -46 -81 -67
-72 -82 8 -12 86 -13 140 0 24 5 44 5 49 0 6 -6 -12 -40 -43 -86 -28 -43 -50
-84 -49 -93 7 -38 64 -20 189 62 25 17 27 17 49 -1 l22 -18 -46 -92 c-53 -105
-59 -142 -22 -142 16 0 52 27 110 81 53 49 94 79 104 77 22 -5 21 -10 -19
-145 -27 -93 -31 -114 -20 -127 21 -25 51 -2 131 99 40 50 73 91 75 93 2 2 12
-1 24 -7 19 -10 19 -13 5 -47 -38 -90 -40 -222 -4 -266 17 -21 17 -21 36 -2
11 11 37 71 58 134 22 63 40 116 41 117 1 2 21 -5 44 -14 38 -15 42 -19 36
-42 -34 -134 -17 -283 30 -265 14 6 33 47 80 172 15 39 30 72 33 72 4 0 24 -5
45 -11 36 -10 37 -12 31 -44 -3 -19 -1 -66 6 -105 12 -69 31 -105 54 -97 6 2
27 50 46 108 34 101 36 104 67 107 34 3 36 1 48 -73 4 -21 13 -52 21 -67 30
-58 65 -23 86 85 12 64 14 67 40 67 26 0 28 -3 28 -39 0 -24 7 -48 20 -62 l20
-24 30 32 c16 18 35 53 41 78 9 37 16 45 34 45 19 0 25 -8 34 -45 20 -79 56
-70 90 21 22 58 30 61 178 63 103 1 216 -16 288 -43 l40 -15 -85 -1 c-217 -2
-352 -51 -715 -258 -82 -47 -190 -103 -239 -124 -98 -43 -361 -121 -443 -133
-51 -7 -80 -25 -69 -43 3 -5 10 -41 17 -81 10 -70 46 -180 88 -271 33 -73 28
-103 -27 -163 -66 -71 -87 -109 -112 -202 -38 -142 -61 -205 -80 -215 -13 -7
-32 -2 -75 21 -39 21 -72 31 -102 31 -32 0 -50 6 -70 24 -25 23 -25 25 -8 44
23 25 55 25 106 0 22 -12 44 -18 50 -15 18 11 107 199 129 273 17 55 20 84 15
119 -11 77 -54 182 -122 300 -35 62 -68 125 -74 140 -7 18 -43 51 -100 92
-125 91 -268 219 -350 315 l-69 81 -1 65 c0 74 -28 191 -47 198 -16 5 -15 -21
3 -88 20 -75 20 -149 -1 -157 -9 -3 -48 2 -88 12 -40 10 -84 15 -97 12 -28 -7
-70 -42 -86 -72 -10 -17 -12 -18 -28 -2 -9 9 -23 17 -32 17 -8 0 -13 3 -11 8
2 4 18 35 36 70 l33 63 57 -6 c31 -3 69 -8 84 -11 35 -7 45 13 14 28 -23 10
-26 17 -26 57 1 72 16 124 44 146 31 24 33 35 8 35 -47 0 -81 -75 -82 -179 l0
-54 -37 7 c-21 3 -44 6 -50 6 -33 0 -2 139 87 395 32 91 54 174 58 212 4 57 3
63 -22 88 -26 26 -30 27 -114 22 -48 -2 -131 -10 -184 -17 -54 -8 -100 -11
-103 -8 -4 3 6 18 20 32 21 21 26 34 23 66 -3 45 -21 59 -26 20 -6 -57 -13
-67 -52 -85 l-41 -19 -55 27 c-74 37 -96 73 -91 151 3 53 7 62 39 92 39 35 71
46 189 61 95 13 143 36 247 123 74 62 113 83 197 104 45 11 138 -4 189 -31z
m96 -463 c0 -28 -2 -30 -37 -29 -21 1 -49 4 -63 8 -22 7 -19 10 35 28 33 12
61 22 63 22 1 1 2 -12 2 -29z m-10 -191 c0 -24 -3 -30 -16 -25 -9 3 -33 6 -55
6 -51 0 -50 12 4 32 60 24 67 22 67 -13z m48 -144 c6 -13 8 -26 4 -29 -13 -8
-117 -19 -111 -12 12 12 84 65 90 66 3 0 11 -11 17 -25z m102 -126 l24 -21
-24 -18 c-39 -30 -120 -72 -120 -63 0 16 77 123 88 123 4 -1 18 -10 32 -21z
m200 -130 c0 -10 -152 -150 -157 -145 -3 2 16 45 41 95 l46 91 35 -17 c19 -9
35 -20 35 -24z m150 -64 c17 -9 30 -19 30 -24 0 -13 -129 -171 -140 -171 -4 0
3 37 17 82 44 143 41 140 93 113z m-1050 -45 l50 0 0 -35 c0 -34 -1 -35 -41
-35 -23 0 -56 -9 -79 -22 l-39 -23 -32 32 -32 32 26 40 27 40 35 -14 c19 -8
57 -15 85 -15z m-187 -17 c-9 -16 -18 -29 -19 -31 -1 -2 -5 1 -8 6 -6 11 21
52 35 52 5 0 2 -12 -8 -27z m1407 -18 l30 -15 -40 -112 c-22 -62 -44 -116 -49
-121 -14 -14 -22 86 -11 143 10 54 31 120 38 120 1 0 16 -7 32 -15z m-1412
-47 c9 -9 2 -16 -29 -30 -50 -22 -50 -22 -42 0 15 41 46 55 71 30z m242 -23
c0 -5 -49 -107 -55 -113 -2 -2 -51 16 -63 24 -4 3 27 64 40 82 10 11 78 18 78
7z m1385 -15 c22 -8 24 -14 19 -37 -4 -16 -10 -32 -14 -38 -4 -5 -18 -40 -31
-77 -13 -38 -27 -68 -31 -68 -12 0 -9 163 3 199 12 34 16 36 54 21z m-1566
-18 c10 -19 -10 -62 -29 -62 -13 0 -17 33 -6 58 11 27 22 28 35 4z m2347 2
c-3 -9 -9 -27 -12 -40 -6 -23 -24 -34 -24 -15 0 5 -3 23 -6 40 -6 29 -4 31 21
31 21 0 26 -4 21 -16z m-181 -84 c-20 -39 -35 -30 -35 20 0 32 4 39 23 42 28
4 33 -20 12 -62z m-352 35 c-1 -5 -12 -39 -24 -75 -12 -36 -23 -72 -26 -80 -7
-21 -19 11 -28 77 -10 77 -2 95 43 91 21 -2 36 -7 35 -13z m197 -11 c0 -26
-22 -104 -31 -109 -7 -5 -15 19 -33 98 -6 25 -4 27 29 27 25 0 35 -4 35 -16z
m-1601 -30 c29 -8 67 -14 84 -12 23 2 33 -2 35 -13 4 -22 -86 -60 -158 -66
l-57 -5 -23 37 -23 38 22 18 c28 23 52 24 120 3z m-322 -12 c10 -6 9 -16 -5
-44 -17 -33 -20 -34 -30 -17 -15 24 -15 42 0 57 14 14 19 14 35 4z m92 -46
c17 -20 -17 -90 -36 -75 -16 14 -17 43 -3 70 13 23 23 24 39 5z m416 -43 c19
-21 35 -40 35 -43 0 -12 -115 -83 -147 -91 -34 -7 -39 -4 -89 43 -30 28 -52
53 -50 55 2 2 34 11 71 18 37 8 81 23 99 34 17 11 34 20 38 20 4 1 23 -16 43
-36z m102 -114 l44 -41 -36 -33 c-20 -19 -53 -40 -75 -46 -36 -11 -42 -10 -89
21 -28 17 -51 35 -51 39 0 4 15 13 34 19 19 7 54 28 78 47 23 19 45 34 47 34
2 1 24 -17 48 -40z m117 -166 c-46 -39 -57 -40 -121 -12 -44 19 -46 22 -29 33
11 6 38 27 60 47 l40 37 44 -36 44 -36 -38 -33z m127 -34 l54 -41 -76 6 c-110
8 -117 12 -83 47 15 16 33 29 39 29 6 0 36 -19 66 -41z m75 -92 c17 -25 121
-210 144 -258 l32 -65 -92 -145 c-132 -207 -133 -209 -154 -209 -10 0 -42 -13
-70 -28 -42 -24 -65 -29 -127 -31 l-76 -2 -13 31 c-7 17 -21 35 -32 41 -24 13
-10 33 34 48 28 10 32 8 61 -24 51 -58 106 -43 174 47 91 119 163 232 163 256
0 13 -31 93 -70 178 -38 84 -70 158 -70 165 0 8 14 9 48 4 26 -4 47 -8 48 -8z
m195 -443 c0 -33 -7 -79 -16 -104 -29 -84 -98 -220 -111 -220 -19 0 -84 72
-76 85 87 140 196 305 199 302 2 -3 4 -31 4 -63z m-607 -130 c23 -9 20 -17
-15 -43 -29 -22 -31 -22 -50 -5 -24 22 -24 29 4 42 26 13 40 14 61 6z m-89
-64 c21 -23 22 -21 -32 -49 -53 -26 -53 -26 -53 3 0 15 11 33 26 45 33 26 36
26 59 1z m103 -82 c3 -13 -3 -18 -22 -18 -13 0 -37 -5 -52 -10 -35 -14 -50 0
-34 29 9 19 19 22 58 19 35 -2 48 -7 50 -20z m357 -2 c17 -12 16 -14 -19 -31
-34 -16 -39 -16 -53 -2 -14 14 -13 17 13 31 36 19 36 19 59 2z m-90 -66 c10
-11 16 -20 14 -21 -2 0 -13 -3 -24 -6 -11 -3 -40 -7 -64 -10 -50 -6 -49 6 3
38 39 24 49 24 71 -1z m43 -76 c34 -23 27 -30 -33 -31 -30 -1 -55 1 -55 3 0 2
6 13 12 24 15 24 45 26 76 4z"/>
<path d="M4135 2959 c-67 -19 -87 -99 -36 -150 50 -50 121 -37 147 28 14 31
13 38 -3 71 -21 43 -64 63 -108 51z m80 -39 c10 -11 18 -34 18 -50 0 -27 -26
-70 -43 -70 -4 0 -5 22 -2 49 2 26 -1 58 -7 70 -16 28 8 29 34 1z"/>
<path d="M3632 2758 c-14 -14 -16 -48 -4 -48 12 0 42 34 42 48 0 16 -23 15
-38 0z"/>
<path d="M5499 2992 c-5 -15 -19 -32 -32 -37 -34 -15 -32 -46 5 -84 33 -34 99
-70 129 -71 9 0 22 7 29 15 18 22 -3 82 -53 151 -43 60 -63 67 -78 26z m91
-113 c18 -42 5 -47 -47 -19 -66 35 -73 52 -38 83 l29 25 22 -30 c12 -16 28
-43 34 -59z"/>
<path d="M10075 3006 c-35 -15 -83 -66 -144 -153 -24 -35 -46 -63 -48 -63 -2
0 -21 18 -43 41 -59 62 -86 54 -146 -46 -9 -16 -20 -8 -95 67 -67 69 -92 88
-122 93 -71 14 -120 -43 -156 -179 -13 -47 -24 -86 -26 -86 -1 0 -19 7 -38 15
-73 30 -126 9 -142 -58 -10 -38 -17 -40 -64 -14 -37 20 -43 21 -67 7 -43 -24
-63 -59 -85 -155 -43 -181 -36 -165 -74 -165 -41 0 -65 -22 -65 -59 0 -23 -5
-30 -29 -34 -36 -7 -64 -62 -81 -160 -7 -38 -16 -65 -20 -60 -4 4 -15 29 -25
56 -48 129 -122 127 -170 -4 l-19 -54 -10 49 c-7 32 -19 54 -34 64 -22 15 -25
13 -69 -35 l-46 -50 -56 39 c-101 71 -212 85 -313 40 -24 -10 -81 -47 -128
-80 -92 -67 -137 -87 -215 -97 -41 -6 -56 -14 -87 -47 -53 -57 -57 -94 -22
-166 21 -41 42 -66 76 -89 79 -52 267 -107 578 -169 103 -21 655 -114 674
-114 3 0 3 -6 1 -12 -5 -17 -41 -266 -55 -387 -16 -141 3 -177 102 -196 35 -7
36 -8 31 -45 -5 -32 -2 -40 18 -53 34 -21 136 -29 257 -19 83 7 107 13 124 29
27 28 45 111 59 280 7 79 15 143 18 143 4 0 61 -18 126 -40 167 -56 291 -80
419 -80 122 0 274 21 366 49 35 11 66 19 68 16 2 -2 -1 -36 -7 -77 -13 -86
-18 -303 -7 -336 17 -51 111 -63 338 -43 107 9 132 26 123 81 l-6 36 90 28
c114 35 156 69 146 118 -4 18 -36 92 -70 163 -59 121 -95 224 -95 273 0 15 33
40 133 100 173 104 185 110 367 177 341 126 592 291 709 465 49 71 135 234
151 282 24 76 -13 100 -81 53 l-37 -24 -4 90 c-6 132 -47 160 -90 62 -16 -37
-19 -59 -15 -107 3 -34 9 -70 13 -81 4 -11 -7 -2 -23 20 -42 57 -90 95 -119
95 -19 0 -29 -8 -40 -35 -18 -43 -18 -67 0 -136 8 -31 16 -61 18 -68 4 -18
-61 -56 -67 -38 -2 6 -9 29 -15 50 -16 52 -93 151 -132 170 -28 13 -36 14 -53
3 -11 -7 -23 -24 -26 -37 -12 -43 -9 -155 6 -204 15 -50 13 -65 -9 -65 -9 0
-15 22 -18 73 -7 112 -72 220 -121 201 -39 -14 -41 -142 -4 -232 24 -60 24
-60 3 -66 -25 -7 -36 9 -36 54 0 19 -11 64 -23 100 -18 53 -27 67 -50 75 -50
17 -137 -45 -208 -146 -10 -13 -20 -21 -25 -16 -4 4 7 24 24 45 60 70 85 130
90 215 4 71 3 80 -18 102 -27 29 -64 32 -125 10 -22 -8 -41 -15 -42 -15 -1 0
-10 16 -19 35 -20 43 -54 54 -89 31 -30 -20 -31 -18 -40 72 -13 129 -45 192
-97 192 -37 0 -58 -11 -137 -74 -38 -29 -66 -46 -68 -39 -3 7 -14 27 -26 45
-30 44 -72 49 -115 13 l-30 -25 -26 77 c-40 119 -86 204 -125 230 -39 26 -54
28 -96 9z m87 -53 c63 -66 154 -333 125 -362 -6 -6 -36 -57 -68 -113 l-56
-103 -49 1 c-27 0 -83 4 -124 8 l-75 7 -23 117 c-33 172 -33 171 45 287 76
115 144 185 177 185 12 0 34 -12 48 -27z m-655 -64 c36 -23 135 -133 180 -200
l27 -41 -17 -82 c-9 -44 -25 -106 -34 -136 l-18 -54 -65 -13 c-138 -27 -117
-34 -187 66 -92 131 -89 118 -53 260 53 213 85 250 167 200z m319 -86 c38 -41
39 -47 19 -83 -20 -35 -18 -77 9 -212 l23 -118 -21 0 c-12 0 -54 -2 -93 -3
-62 -2 -72 0 -68 13 19 63 55 220 55 240 0 14 -11 41 -24 60 l-24 35 25 45
c14 25 27 48 30 53 10 16 37 5 69 -30z m904 -101 c15 -34 40 -190 40 -257 0
-60 -18 -96 -82 -163 l-47 -50 -108 34 c-59 19 -113 36 -119 38 -14 5 1 159
21 213 13 33 37 59 109 117 138 112 161 121 186 68z m-280 -32 l21 -41 -35
-40 c-37 -44 -55 -99 -63 -201 -3 -38 -9 -68 -12 -68 -18 0 -161 36 -161 40 0
3 29 58 65 122 39 70 65 129 65 147 0 20 9 37 31 55 44 37 65 33 89 -14z
m-1195 -7 c23 -11 34 -22 31 -32 -22 -76 -21 -82 58 -195 42 -59 76 -109 76
-111 0 -3 -148 -85 -153 -85 -1 0 -2 40 -2 90 l0 89 -69 70 c-67 67 -68 70
-62 108 15 81 50 100 121 66z m-123 -160 l99 -98 -3 -95 -3 -95 -54 -36 c-29
-19 -73 -46 -97 -59 -40 -22 -45 -23 -56 -8 -7 9 -39 49 -70 90 l-57 73 13 55
c7 30 21 89 30 130 20 91 47 140 77 140 14 0 58 -35 121 -97z m1767 -47 c13
-27 12 -29 -38 -73 -46 -40 -91 -105 -91 -132 0 -5 -4 -21 -9 -35 -9 -23 -12
-24 -45 -14 l-35 11 46 51 c53 59 82 117 83 163 0 25 6 36 28 47 34 19 44 16
61 -18z m1115 12 c18 -70 -2 -224 -25 -187 -16 27 -22 119 -9 164 14 50 25 57
34 23z m-926 -111 c3 -80 -14 -126 -78 -204 l-42 -51 -87 36 c-47 20 -87 37
-89 38 -2 1 4 28 14 59 11 41 28 70 58 100 53 53 139 96 186 92 l35 -2 3 -68z
m771 -22 c43 -37 85 -126 76 -164 -14 -64 -67 -68 -97 -9 -23 43 -44 157 -35
181 9 23 20 21 56 -8z m-1754 -6 c192 -26 544 -135 785 -241 226 -100 283
-118 380 -118 47 0 127 9 178 19 92 19 93 19 138 -1 57 -25 89 -14 123 41 15
24 41 47 68 60 40 19 46 20 66 6 52 -37 118 4 133 81 5 28 20 46 77 90 39 31
73 51 75 46 4 -14 -81 -181 -133 -263 -24 -37 -69 -92 -101 -124 -118 -116
-380 -266 -584 -335 -128 -43 -234 -93 -382 -181 -156 -93 -208 -143 -236
-230 -56 -170 -51 -373 13 -541 7 -18 -13 -22 -132 -31 l-51 -4 -7 44 c-8 53
-45 84 -76 65 -15 -10 -24 -9 -44 4 -23 15 -27 15 -50 0 l-25 -16 0 82 c0 133
28 300 67 406 24 64 12 68 -104 33 -156 -46 -234 -54 -495 -49 -253 5 -276 9
-435 78 -43 18 -72 25 -78 19 -5 -5 -10 -87 -11 -182 -2 -188 -25 -372 -49
-396 -10 -10 -41 -17 -85 -19 l-70 -4 0 35 c0 49 -23 69 -74 66 -23 -1 -51 -2
-63 -1 l-21 2 1 268 c1 147 -1 279 -5 293 -6 20 -16 28 -40 32 -18 3 -168 29
-333 57 -165 27 -358 62 -430 76 -128 25 -374 82 -387 90 -3 2 7 18 23 34 24
23 30 37 27 62 -4 42 -20 42 -29 1 -9 -44 -25 -61 -63 -68 -56 -11 -161 47
-191 105 -23 44 -19 94 10 128 20 24 36 31 82 37 67 8 137 43 241 120 87 64
127 79 207 79 68 -1 133 -29 205 -89 79 -66 122 -85 227 -100 151 -22 203 -19
307 16 105 35 198 83 410 213 83 52 176 107 206 124 66 37 207 79 310 92 88
10 311 5 425 -11z m1493 -53 c50 -54 81 -113 88 -169 5 -37 2 -48 -19 -72
l-25 -29 -39 18 c-34 15 -42 25 -56 70 -24 76 -22 226 3 226 4 0 26 -20 48
-44z m-163 -90 c8 -27 15 -74 15 -103 0 -47 -2 -53 -21 -53 -31 0 -71 96 -72
174 0 34 3 68 7 75 12 20 52 -33 71 -93z m-2574 72 c6 -13 37 -54 67 -93 30
-38 59 -75 64 -82 7 -8 -1 -17 -23 -29 -38 -19 -26 -28 -126 100 -48 61 -64
102 -46 119 15 15 53 6 64 -15z m2393 -61 c14 -20 24 -60 40 -156 l6 -34 -67
6 c-69 6 -158 31 -169 48 -10 16 57 100 104 130 55 35 67 36 86 6z m-2412
-103 c43 -53 54 -72 45 -81 -14 -14 -154 -71 -196 -79 l-29 -6 22 104 c12 58
30 117 40 132 16 25 19 26 39 13 12 -8 48 -45 79 -83z m-298 -6 c21 -29 70
-158 63 -164 -7 -8 -142 7 -158 16 -20 13 45 170 71 170 5 0 16 -10 24 -22z
m-171 -85 c3 -29 4 -53 1 -53 -10 0 -84 41 -84 46 0 3 14 23 32 45 36 45 42
41 51 -38z m487 -690 c3 -2 4 -97 3 -210 -1 -171 -4 -208 -17 -221 -14 -14
-17 -14 -35 2 -13 12 -27 16 -42 11 -22 -7 -22 -6 -16 56 4 35 17 135 29 222
l21 158 26 -6 c14 -4 28 -9 31 -12z m1925 -139 c9 -32 45 -119 80 -193 36 -73
65 -144 65 -158 0 -19 -9 -28 -42 -43 -56 -26 -60 -25 -80 10 -19 33 -62 49
-89 32 -15 -10 -18 -5 -24 48 -8 68 0 158 21 243 15 57 44 130 51 123 2 -1 10
-30 18 -62z m-1425 28 c28 -14 36 -24 41 -57 4 -22 5 -42 4 -44 -2 -1 -23 3
-47 11 -42 14 -43 16 -46 61 -3 52 -2 53 48 29z m974 -39 c-14 -55 -24 -73
-49 -85 -29 -13 -27 -15 -47 39 l-16 43 46 14 c69 21 73 20 66 -11z m-755 -72
c5 -25 8 -47 6 -49 -9 -9 -135 41 -135 53 0 7 -3 26 -6 43 l-6 30 66 -16 65
-16 10 -45z m616 27 c27 -66 25 -71 -30 -84 -91 -22 -101 -19 -114 29 -7 23
-14 47 -17 53 -4 9 59 25 134 33 7 0 19 -14 27 -31z m-419 -52 c13 -33 22 -61
20 -63 -2 -2 -39 2 -82 9 l-79 13 -11 53 -12 54 70 -4 70 -3 24 -59z m229 3
c9 -28 14 -53 10 -57 -4 -4 -42 -9 -86 -11 l-79 -3 -25 56 c-14 31 -25 59 -25
61 0 3 42 5 94 5 l94 0 17 -51z m-1205 -228 c10 -19 4 -51 -9 -51 -22 0 -57
51 -44 64 13 13 43 5 53 -13z m60 -24 c0 -26 -9 -39 -20 -32 -10 6 0 55 11 55
5 0 9 -10 9 -23z m1912 -34 c24 -22 23 -39 -4 -47 -36 -9 -38 -8 -38 22 0 44
13 52 42 25z m-1844 -81 c3 -26 0 -32 -17 -32 -26 0 -30 9 -24 43 8 40 37 32
41 -11z m90 26 c16 -20 3 -68 -19 -68 -15 0 -19 7 -19 33 0 46 16 61 38 35z
m1372 -84 c0 -41 -2 -45 -22 -42 -27 4 -33 24 -19 61 17 45 41 34 41 -19z m91
-2 c7 -35 4 -42 -23 -42 -14 0 -18 8 -18 33 0 57 30 64 41 9z"/>
<path d="M9813 2305 c-13 -9 -23 -26 -23 -39 0 -43 30 -122 55 -146 72 -67
302 -8 281 73 -9 36 -44 75 -85 97 -55 27 -198 37 -228 15z m216 -43 c47 -23
79 -67 65 -90 -23 -38 -169 -66 -215 -42 -33 18 -71 123 -53 151 10 16 161 2
203 -19z"/>
<path d="M9479 2265 c-28 -15 -49 -60 -49 -104 0 -66 67 -131 135 -131 40 0
128 42 149 71 37 53 8 130 -61 168 -30 16 -143 13 -174 -4z m170 -30 c36 -18
58 -68 45 -102 -11 -31 -67 -63 -124 -70 -35 -5 -43 -2 -76 31 -33 33 -36 40
-31 79 8 57 34 77 104 77 30 0 67 -7 82 -15z"/>
<path d="M10266 2228 c-19 -65 -27 -109 -22 -126 9 -27 75 -54 135 -55 64 -1
104 30 99 78 -3 26 -12 35 -83 72 -82 43 -123 53 -129 31z m110 -54 c76 -37
91 -58 59 -84 -20 -17 -131 -9 -151 12 -13 12 -13 22 -3 61 6 26 14 47 16 47
3 0 39 -16 79 -36z"/>
<path d="M10636 2107 c-34 -34 -42 -97 -19 -144 21 -43 50 -54 103 -40 93 24
106 100 32 180 -33 35 -83 37 -116 4z m111 -46 c30 -44 29 -76 -1 -96 -29 -19
-82 -23 -98 -7 -6 6 -11 32 -11 57 0 86 65 113 110 46z"/>
<path d="M9210 2088 c-24 -13 -52 -35 -63 -49 -17 -23 -18 -32 -8 -62 16 -48
73 -97 112 -97 45 0 134 28 163 51 33 26 33 49 1 79 -14 13 -25 31 -25 41 0
10 -12 27 -26 38 -36 28 -98 27 -154 -1z m131 -18 c10 -6 19 -18 19 -26 0 -9
13 -28 29 -44 26 -27 27 -30 12 -43 -21 -18 -107 -47 -141 -47 -53 0 -110 72
-89 112 23 43 125 72 170 48z"/>
<path d="M10933 2014 c-3 -9 -1 -25 6 -36 10 -16 8 -23 -19 -48 -35 -33 -35
-32 -15 -70 50 -97 205 -59 205 50 0 50 -29 81 -97 104 -59 20 -72 20 -80 0z
m108 -47 c56 -37 52 -98 -7 -123 -41 -17 -62 -13 -94 21 l-23 24 32 30 c24 22
31 36 26 51 -9 28 22 27 66 -3z"/>
<path d="M7899 1991 c-63 -63 -15 -171 76 -171 36 0 95 59 95 94 0 93 -107
141 -171 77z m121 -11 c31 -31 36 -68 13 -98 -31 -42 -41 -38 -36 12 3 24 1
58 -5 75 -13 36 -1 40 28 11z"/>
<path d="M8952 1959 c-58 -38 -76 -97 -48 -164 27 -63 81 -72 132 -21 31 31
34 39 34 95 0 52 -4 66 -25 86 -29 30 -50 31 -93 4z m78 -28 c5 -11 10 -40 10
-64 0 -85 -72 -131 -105 -67 -24 46 -19 78 19 116 39 39 61 43 76 15z"/>
<path d="M11270 1921 c-16 -31 -12 -107 7 -126 13 -13 26 -15 62 -10 113 17
172 84 121 135 -17 17 -33 20 -100 20 -68 0 -81 -3 -90 -19z m169 -25 c26 -31
-32 -74 -106 -79 -36 -2 -38 -1 -41 31 -6 57 1 62 71 62 43 0 68 -5 76 -14z"/>
<path d="M8306 1859 c-32 -25 -35 -70 -6 -116 30 -51 97 -56 140 -13 31 31 26
76 -14 116 -40 40 -80 44 -120 13z m101 -31 c13 -12 23 -32 23 -44 0 -24 -33
-54 -59 -54 -25 0 -61 42 -61 71 0 49 57 65 97 27z"/>
<path d="M8685 1845 c-40 -14 -85 -56 -85 -78 0 -27 43 -79 75 -93 45 -19 104
-1 123 38 24 50 -17 149 -62 148 -6 -1 -29 -7 -51 -15z m75 -35 c16 -30 16
-90 -1 -101 -24 -15 -85 -10 -101 9 -38 44 -27 74 37 97 52 18 52 18 65 -5z"/>
<path d="M7020 2983 c-31 -12 -299 -165 -375 -215 -138 -91 -134 -124 21 -199
56 -27 107 -49 112 -49 16 0 98 -50 191 -115 98 -68 137 -85 200 -85 65 0 105
31 105 82 0 55 -26 85 -89 103 -42 13 -55 21 -55 35 0 18 8 19 118 17 122 -2
142 3 190 46 43 40 19 144 -41 168 -45 19 -124 15 -185 -10 -58 -23 -132 -28
-132 -9 0 7 23 36 52 65 64 65 69 101 20 145 -25 22 -42 28 -75 27 -23 0 -49
-3 -57 -6z m104 -44 c14 -11 26 -28 26 -37 0 -9 -23 -40 -51 -68 -56 -57 -67
-96 -33 -121 25 -19 53 -16 141 12 81 26 152 32 182 15 24 -13 45 -64 37 -94
-11 -43 -62 -58 -192 -54 -105 3 -117 1 -130 -16 -8 -11 -14 -25 -14 -32 0
-25 39 -59 86 -74 38 -11 51 -21 58 -43 13 -37 -1 -60 -47 -71 -48 -12 -106
10 -204 81 -66 47 -233 140 -233 130 0 -11 -165 81 -167 94 -4 24 17 41 157
125 297 179 333 193 384 153z"/>
<path d="M7485 2754 c-10 -11 -13 -23 -8 -33 4 -9 6 -35 6 -58 -2 -38 1 -44
23 -49 37 -9 135 0 169 17 43 21 44 51 1 84 -36 28 -112 55 -152 55 -12 0 -30
-7 -39 -16z m135 -46 c24 -13 46 -28 48 -35 4 -14 -58 -33 -109 -33 -37 0 -37
1 -41 45 -3 44 -3 45 27 45 17 0 51 -10 75 -22z"/>
<path d="M7307 2409 c-10 -6 -17 -22 -17 -38 0 -15 -9 -36 -20 -46 -11 -10
-20 -22 -20 -26 0 -15 98 -59 144 -65 49 -7 86 8 86 35 0 56 -132 162 -173
140z m114 -99 c18 -21 25 -37 18 -41 -13 -8 -75 4 -110 21 -27 12 -27 12 -10
50 l16 38 29 -16 c15 -10 41 -33 57 -52z"/>
<path d="M5711 2283 c-7 -16 -18 -37 -26 -47 -14 -18 -16 -18 -71 18 -33 23
-60 34 -65 29 -6 -6 8 -47 33 -101 l43 -92 113 1 c115 1 140 9 143 45 2 21 0
14 41 117 18 46 -4 56 -48 21 -73 -58 -66 -58 -99 -9 -35 52 -48 55 -64 18z
m96 -93 c6 0 26 12 43 27 18 15 30 20 28 12 -2 -8 -10 -35 -18 -61 l-14 -48
-101 0 -101 0 -21 50 c-12 28 -20 50 -17 50 2 0 18 -9 36 -20 18 -11 36 -20
40 -20 4 0 17 19 29 42 l22 42 31 -37 c17 -20 36 -37 43 -37z"/>
<path d="M3063 2100 c-18 -11 -45 -38 -60 -59 -16 -22 -31 -40 -34 -41 -4 0
-16 15 -29 33 -32 47 -68 70 -109 71 -35 1 -36 0 -35 -36 3 -102 155 -184 250
-135 64 33 121 116 112 164 -5 26 -56 28 -95 3z m67 -20 c0 -37 -66 -111 -111
-125 -32 -11 -33 1 -4 50 34 58 115 111 115 75z m-261 -14 c22 -12 81 -90 81
-108 0 -29 -92 28 -115 72 -26 51 -15 63 34 36z"/>
<path d="M12112 1820 c-44 -10 -80 -45 -105 -100 -25 -57 -36 -282 -36 -807
-1 -348 -2 -363 -20 -373 -11 -5 -35 -10 -54 -10 -53 0 -60 28 -62 248 -2 207
-15 282 -75 407 -44 91 -90 101 -133 27 -50 -86 -103 -421 -94 -592 8 -141 28
-204 81 -256 51 -52 96 -65 207 -61 95 2 131 -12 150 -61 11 -27 6 -172 -7
-219 -5 -19 -2 -23 19 -23 23 0 25 4 36 91 26 201 -23 259 -216 259 -119 0
-152 16 -192 94 -49 96 -39 429 20 646 21 77 42 120 59 120 26 0 85 -181 99
-305 5 -44 7 -133 4 -198 -7 -135 8 -186 60 -214 40 -20 107 -10 137 22 22 24
23 28 21 247 -2 306 16 875 29 920 6 21 21 50 34 64 50 58 194 35 232 -37 21
-41 20 -141 -1 -422 -35 -450 -33 -494 31 -524 91 -44 145 44 173 288 40 334
58 399 116 399 65 0 71 -62 53 -486 -15 -332 -17 -342 -82 -369 -18 -8 -86
-21 -152 -29 -139 -17 -149 -24 -140 -101 3 -27 6 -143 6 -257 l0 -208 27 0
26 0 -7 254 -7 255 33 5 c18 3 73 10 123 16 109 14 159 39 188 95 20 37 22 63
30 395 10 389 7 427 -40 457 -39 26 -88 22 -122 -11 -35 -33 -57 -99 -71 -213
-23 -177 -50 -359 -60 -394 -14 -51 -40 -72 -74 -60 -26 11 -26 11 -26 123 0
62 7 190 15 283 34 409 32 488 -17 550 -40 52 -143 83 -216 65z"/>
<path d="M12194 1746 c-9 -23 0 -69 14 -74 8 -2 12 9 12 37 0 41 -16 64 -26
37z"/>
<path d="M12087 1663 c-11 -10 -8 -51 4 -59 18 -10 32 13 25 40 -6 26 -16 32
-29 19z"/>
<path d="M12216 1584 c-11 -29 -6 -64 8 -64 16 0 31 53 21 70 -9 15 -22 12
-29 -6z"/>
<path d="M12077 1423 c-3 -16 -2 -32 3 -37 14 -14 30 4 30 35 0 37 -26 39 -33
2z"/>
<path d="M12624 1417 c-7 -20 -2 -47 11 -50 14 -3 19 43 6 56 -7 7 -12 6 -17
-6z"/>
<path d="M944 1361 c-52 -24 -81 -61 -90 -116 -9 -65 16 -104 87 -132 77 -31
72 -46 -24 -68 -45 -10 -77 -51 -77 -100 0 -90 29 -125 115 -139 57 -10 116
-45 139 -85 l19 -34 -28 -51 c-15 -28 -29 -52 -30 -54 -2 -2 -19 8 -40 22 -77
53 -142 42 -165 -29 -12 -36 -23 -44 -36 -24 -3 6 -33 31 -66 55 -47 34 -69
44 -99 44 -125 0 -206 -172 -130 -277 41 -56 90 -78 174 -77 44 1 67 -2 67
-10 0 -6 -12 -31 -26 -56 -40 -69 -31 -142 21 -176 22 -14 43 -16 160 -10 139
8 190 1 227 -31 9 -8 25 -13 35 -11 16 3 15 7 -10 30 -43 40 -104 51 -243 43
-67 -4 -131 -4 -144 0 -12 4 -28 23 -37 43 -14 34 -13 38 16 95 52 100 39 125
-58 112 -79 -11 -145 28 -177 103 -19 43 -4 99 37 146 60 69 103 64 206 -22
64 -55 88 -55 104 -2 17 57 31 66 79 51 36 -11 74 -43 136 -114 11 -13 41 -31
67 -40 26 -10 68 -24 93 -33 83 -29 93 -45 98 -156 5 -106 23 -153 72 -185 42
-27 18 -26 -38 3 -64 32 -145 87 -253 169 -112 86 -206 139 -336 191 -117 46
-143 52 -137 32 2 -6 51 -30 109 -53 162 -64 216 -95 354 -200 123 -94 201
-144 279 -180 63 -28 81 -32 166 -33 80 0 92 2 77 13 -9 7 -44 18 -77 24 -39
8 -74 23 -101 44 -73 55 -82 74 -84 176 -4 129 -21 151 -157 197 -138 47 -155
72 -108 160 32 61 33 86 4 132 -24 36 -91 75 -147 83 -67 11 -97 42 -97 103 0
52 18 71 85 92 56 16 75 30 75 54 0 23 -26 43 -81 64 -62 22 -79 59 -58 120
10 30 25 46 54 63 77 43 126 26 214 -75 58 -66 101 -88 157 -79 45 8 94 -8
138 -42 62 -49 77 -76 87 -151 12 -96 27 -121 109 -175 39 -26 75 -55 80 -66
6 -11 10 -74 9 -143 -1 -129 3 -146 47 -199 58 -69 55 -170 -11 -376 -5 -15
-2 -21 9 -21 9 0 16 1 16 3 0 1 9 27 20 57 l19 55 0 -57 c1 -44 5 -58 16 -58
11 0 14 12 14 47 -1 69 20 208 39 262 17 44 20 46 62 51 60 7 72 29 114 233
49 234 68 267 152 267 35 0 47 -5 68 -31 14 -17 26 -36 26 -43 0 -7 9 -21 20
-31 32 -29 90 -15 184 47 44 30 94 59 109 66 64 27 169 6 202 -42 8 -11 15
-39 15 -62 0 -35 -5 -47 -35 -73 -20 -17 -55 -40 -78 -52 -53 -27 -77 -48 -77
-68 0 -9 23 -37 50 -62 35 -32 50 -53 50 -72 0 -34 -5 -36 -99 -47 -123 -14
-187 -50 -179 -102 2 -18 12 -25 43 -31 82 -17 90 -21 93 -50 3 -20 -5 -36
-30 -61 -28 -28 -44 -34 -111 -44 -43 -7 -99 -12 -125 -12 -60 0 -92 -21 -92
-61 0 -19 5 -29 15 -29 9 0 15 9 15 25 0 29 1 29 148 43 114 11 154 28 189 82
46 67 22 116 -64 128 -98 14 -35 68 96 81 102 11 131 28 131 78 0 31 -8 44
-50 84 -27 26 -50 49 -50 52 0 3 28 21 62 39 34 18 77 48 95 66 29 29 33 39
33 86 0 63 -21 96 -83 128 -83 43 -160 24 -304 -72 -95 -64 -125 -66 -153 -11
-38 76 -110 102 -180 66 -58 -30 -78 -80 -120 -297 -11 -56 -27 -122 -36 -146
-15 -39 -18 -42 -53 -42 -44 0 -65 -18 -84 -75 l-14 -40 -13 53 c-7 30 -27 73
-46 98 l-34 44 0 128 c0 81 -5 136 -13 151 -6 14 -41 45 -76 70 -85 61 -102
86 -110 162 -8 74 -28 116 -72 153 -56 48 -104 66 -169 66 -76 0 -103 14 -164
85 -83 96 -137 115 -222 76z"/>
<path d="M12220 1304 c0 -59 24 -55 28 4 2 33 0 42 -12 42 -12 0 -16 -11 -16
-46z"/>
<path d="M12587 1343 c-13 -12 -8 -75 5 -71 13 5 30 57 22 70 -6 10 -18 10
-27 1z"/>
<path d="M12624 1226 c-8 -20 -1 -49 12 -53 13 -4 25 32 17 53 -7 18 -22 18
-29 0z"/>
<path d="M12077 1214 c-10 -10 -8 -56 3 -74 14 -23 32 2 28 40 -3 33 -17 48
-31 34z"/>
<path d="M1050 1170 c0 -7 40 -62 88 -124 238 -298 430 -641 531 -948 21 -63
38 -98 47 -98 18 0 18 -2 -7 78 -97 302 -289 652 -524 954 -105 134 -135 165
-135 138z"/>
<path d="M12207 1174 c-10 -11 -8 -62 2 -69 12 -7 18 3 22 39 4 28 -10 44 -24
30z"/>
<path d="M12564 1126 c-8 -32 2 -59 19 -53 16 5 16 69 0 74 -7 3 -15 -7 -19
-21z"/>
<path d="M7225 1067 c-2 -6 -5 -25 -7 -41 -2 -16 -12 -34 -23 -40 -11 -6 -34
-21 -51 -33 -28 -20 -34 -20 -50 -8 -25 19 -54 19 -54 1 0 -8 4 -26 10 -40 7
-21 4 -36 -20 -82 -17 -31 -30 -62 -30 -70 0 -9 -11 -14 -30 -14 -35 0 -40
-22 -13 -52 9 -10 14 -19 12 -21 -2 -1 -28 -17 -57 -35 l-54 -32 7 29 c8 39
-10 48 -44 23 -27 -20 -28 -20 -81 -2 -49 17 -55 22 -65 57 -14 50 -36 49 -55
-4 -10 -31 -21 -44 -40 -48 -14 -3 -36 -14 -49 -24 -20 -16 -28 -16 -60 -5
-56 19 -68 -1 -30 -50 20 -25 21 -32 10 -83 -6 -31 -11 -71 -11 -90 0 -30 -3
-33 -29 -33 -55 0 -50 -25 12 -65 10 -7 18 -33 23 -77 l6 -68 -31 0 c-17 0
-31 -4 -31 -9 0 -5 20 -25 44 -45 28 -23 47 -47 51 -67 10 -47 31 -47 79 0 23
22 44 41 48 41 3 0 8 -18 12 -40 4 -24 12 -40 20 -40 11 0 12 8 5 41 -6 23 -8
43 -7 45 2 1 24 -3 51 -9 45 -10 48 -9 86 21 l40 32 15 -54 c9 -30 16 -59 16
-65 0 -15 40 -14 41 2 0 6 13 22 30 35 l29 23 10 -26 c5 -14 10 -31 10 -36 0
-5 7 -9 16 -9 11 0 14 5 9 18 -3 9 -9 29 -12 45 l-6 27 38 -15 c35 -15 38 -15
81 10 l44 26 -6 -55 c-4 -36 -3 -56 4 -56 14 0 22 25 22 66 0 39 1 39 42 18
26 -14 29 -20 26 -50 -3 -27 0 -34 13 -34 14 0 20 15 29 74 11 66 15 75 44 91
17 10 46 27 65 38 l34 21 -6 -112 c-5 -90 -4 -112 7 -112 10 0 15 26 21 100 3
55 10 100 13 100 4 0 29 -20 56 -43 l49 -43 -22 -48 c-25 -58 -26 -66 -5 -66
9 0 22 16 31 38 11 29 26 44 59 60 52 26 59 52 13 52 -25 0 -30 3 -25 17 4 9
14 45 23 80 13 53 22 69 54 94 51 40 52 64 4 55 l-35 -7 0 66 c0 54 5 73 25
103 34 50 33 65 -5 57 -27 -6 -30 -4 -30 18 0 14 -5 48 -12 76 -10 47 -10 55
11 91 20 36 21 41 6 46 -9 4 -27 2 -40 -4 -21 -10 -26 -8 -36 9 -6 12 -26 38
-45 59 -34 37 -34 38 -19 74 14 32 14 37 1 42 -9 3 -30 -5 -47 -19 -30 -23
-33 -24 -77 -11 -25 8 -57 14 -72 14 -21 0 -30 7 -40 29 -13 32 -38 48 -45 28z
m35 -59 c0 -5 -4 -8 -10 -8 -5 0 -10 10 -10 23 0 18 2 19 10 7 5 -8 10 -18 10
-22z m220 -29 c-7 -11 -14 -18 -17 -15 -3 3 0 12 7 21 18 21 23 19 10 -6z
m-178 -36 c-11 -16 -32 -53 -47 -83 -15 -30 -33 -58 -39 -62 -19 -12 -178 -60
-183 -55 -10 11 49 105 94 149 55 54 102 77 156 78 l38 0 -19 -27z m77 -91
c13 -46 21 -85 19 -86 -19 -15 -84 -56 -89 -56 -3 0 -18 18 -33 39 l-27 39 22
44 c47 94 72 130 79 117 4 -8 17 -52 29 -97z m62 80 c50 -32 91 -77 118 -131
18 -34 43 -111 36 -111 -1 0 -40 17 -85 39 l-83 39 -23 88 c-13 49 -23 92 -24
97 0 13 15 8 61 -21z m-351 -23 c0 -5 -4 -9 -10 -9 -5 0 -10 7 -10 16 0 8 5
12 10 9 6 -3 10 -10 10 -16z m529 -101 c-9 -16 -14 -19 -17 -9 -2 7 2 17 9 22
20 13 21 11 8 -13z m-409 -53 c0 -3 -7 -35 -16 -70 l-16 -63 -45 24 c-26 13
-61 24 -80 24 -27 0 -34 4 -31 17 4 21 188 87 188 68z m94 -75 c6 0 29 12 51
25 22 14 43 25 48 25 4 0 7 -27 7 -60 l0 -59 -57 -42 c-63 -47 -68 -46 -117
14 -29 36 -29 37 -16 94 7 32 15 62 17 66 3 5 17 -7 31 -27 14 -20 30 -36 36
-36z m226 10 c71 -36 80 -43 80 -68 0 -15 3 -44 6 -64 4 -23 3 -38 -4 -38 -5
0 -46 21 -91 46 l-81 45 0 44 c0 24 -3 50 -6 59 -9 24 9 20 96 -24z m-540 9
c0 -6 -4 -7 -10 -4 -5 3 -10 11 -10 16 0 6 5 7 10 4 6 -3 10 -11 10 -16z
m-330 -21 c0 -5 -6 -8 -14 -8 -9 0 -12 7 -9 21 4 16 8 17 14 7 5 -7 9 -16 9
-20z m176 -75 c-11 -11 -17 4 -9 23 7 18 8 18 11 1 2 -10 1 -21 -2 -24z m286
11 c33 -17 94 -97 79 -102 -14 -5 -111 27 -111 36 0 4 -16 24 -35 44 -19 20
-35 40 -35 43 0 10 70 -4 102 -21z m-504 -16 c-2 -25 -15 -41 -66 -81 -35 -27
-66 -47 -69 -44 -3 4 7 32 23 64 21 42 39 63 64 75 47 24 52 23 48 -14z m132
12 c53 -27 63 -45 20 -37 -18 4 -45 7 -60 7 -19 0 -33 8 -44 25 -16 25 -16 25
14 25 17 0 48 -9 70 -20z m320 -84 c0 -7 -13 -24 -28 -39 l-28 -26 -32 19
c-36 22 -39 37 -15 105 l16 49 44 -48 c23 -26 43 -53 43 -60z m-591 75 c7 -5
10 -14 6 -20 -5 -9 -10 -9 -21 0 -26 22 -14 38 15 20z m453 -47 c-14 -51 -20
-58 -64 -80 -26 -13 -48 -20 -48 -14 0 37 90 150 119 150 5 0 1 -25 -7 -56z
m-237 -56 l37 -68 -22 -30 c-25 -35 -22 -34 -62 -14 -29 15 -30 18 -24 62 4
26 9 66 13 90 6 51 9 49 58 -40z m725 13 l0 -69 -65 -41 c-36 -23 -70 -39 -74
-36 -5 2 -12 25 -16 51 -3 25 -13 64 -21 87 l-15 41 24 -22 c32 -30 43 -28
107 18 30 22 56 40 57 40 2 0 3 -31 3 -69z m120 15 l75 -44 0 -76 c-1 -41 -4
-78 -7 -81 -3 -4 -40 17 -82 46 l-76 53 -1 51 c0 27 -2 60 -5 73 -6 31 9 28
96 -22z m-730 17 c-1 -25 -30 -88 -43 -91 -9 -2 -25 16 -41 44 -14 25 -26 48
-26 50 0 2 25 4 55 4 30 0 55 -3 55 -7z m-208 -65 c-5 -75 -10 -84 -67 -121
-30 -21 -57 -37 -60 -37 -3 0 -5 22 -5 50 0 49 1 50 63 99 34 28 64 50 67 51
3 0 4 -19 2 -42z m592 2 c13 -5 27 -17 29 -27 11 -39 17 -73 14 -73 -2 0 -24
7 -50 16 -40 14 -48 21 -57 52 -5 21 -10 41 -10 46 0 8 30 3 74 -14z m-89 -40
c6 -33 4 -38 -39 -68 l-45 -32 -40 16 c-40 16 -41 17 -41 66 l0 50 36 -21 c38
-23 54 -19 88 18 23 25 32 19 41 -29z m-189 14 c-3 -9 -6 -33 -6 -55 0 -34 -4
-42 -40 -64 -22 -14 -44 -25 -50 -25 -5 0 -10 23 -10 53 0 52 0 52 48 78 56
32 66 34 58 13z m504 -122 l0 -77 -62 -35 c-35 -19 -66 -36 -70 -38 -5 -2 -8
28 -8 67 l0 71 67 45 c37 25 69 45 70 45 2 0 3 -35 3 -78z m-647 -2 c4 -18 -2
-34 -22 -60 l-29 -34 -48 15 -49 15 -3 52 -3 53 30 -15 c43 -23 54 -20 75 15
l19 32 12 -24 c7 -13 15 -35 18 -49z m827 -48 c0 -15 -32 -117 -39 -124 -3 -4
-33 14 -65 39 l-58 47 6 50 c3 28 6 61 6 74 0 21 5 19 75 -28 41 -28 75 -54
75 -58z m-356 45 c9 -35 7 -87 -4 -87 -23 0 -80 35 -80 49 0 9 -3 33 -6 53
l-7 38 46 -16 c30 -10 47 -22 51 -37z m-113 -11 l5 -47 -52 -29 -51 -30 -41
18 c-41 17 -52 34 -52 85 0 32 0 32 46 12 35 -14 37 -14 77 15 23 16 47 28 52
26 6 -1 12 -24 16 -50z m-588 -102 c-53 -47 -58 -44 -65 32 -3 37 -1 40 52 75
l55 36 3 -50 c3 -50 2 -52 -45 -93z m-108 126 c3 -5 1 -10 -4 -10 -6 0 -11 5
-11 10 0 6 2 10 4 10 3 0 8 -4 11 -10z m485 -72 c0 -30 -6 -41 -39 -67 l-39
-31 -11 52 c-9 41 -9 53 1 60 7 4 27 16 43 26 35 22 45 14 45 -40z m-145 -137
c-33 -33 -34 -34 -87 -25 l-53 9 -6 60 c-3 33 -4 62 -3 63 1 2 23 -5 48 -17
l46 -20 33 36 32 35 12 -53 12 -54 -34 -34z m365 59 c0 -48 -1 -50 -46 -76
l-46 -27 -43 21 c-36 17 -43 26 -48 58 -4 21 -4 40 -2 42 2 3 22 -2 43 -11 37
-15 40 -15 88 14 27 16 50 29 52 29 1 0 2 -22 2 -50z m108 -32 c-3 -27 -8 -51
-11 -54 -3 -3 -19 2 -36 11 -29 14 -31 19 -31 69 l0 54 41 -16 41 -16 -4 -48z
m-645 10 c6 -52 5 -54 -35 -90 -23 -20 -45 -35 -49 -32 -4 2 -11 24 -14 48 -7
42 -5 45 37 85 23 22 46 41 49 41 4 0 9 -24 12 -52z m336 -49 c1 -17 -8 -32
-29 -47 l-30 -23 -9 23 c-23 62 -21 72 17 101 l37 28 6 -28 c4 -15 7 -40 8
-54z m676 1 c-3 -5 -10 -10 -16 -10 -5 0 -9 5 -9 10 0 6 7 10 16 10 8 0 12 -4
9 -10z"/>
<path d="M11665 1009 c-7 -33 5 -56 24 -45 6 4 11 23 11 42 0 44 -26 46 -35 3z"/>
<path d="M12146 1025 c-9 -25 -7 -65 3 -65 13 0 18 10 22 44 4 32 -15 47 -25
21z"/>
<path d="M3552 985 c-15 -24 -31 -45 -35 -45 -5 0 -28 14 -52 30 -42 29 -75
39 -75 23 0 -5 19 -48 42 -96 l42 -88 119 3 119 3 34 94 c40 110 35 130 -22
85 -74 -59 -67 -59 -103 -9 -18 25 -34 45 -37 45 -3 0 -17 -20 -32 -45z m79
-66 l17 -24 42 34 c47 37 46 40 15 -49 l-12 -35 -99 -3 -100 -3 -22 46 c-12
25 -22 48 -22 51 0 3 15 -4 34 -15 18 -12 38 -21 43 -21 5 0 20 19 33 42 25
45 26 45 71 -23z"/>
<path d="M12600 980 c0 -20 5 -30 15 -30 10 0 15 10 15 30 0 20 -5 30 -15 30
-10 0 -15 -10 -15 -30z"/>
<path d="M12545 917 c-9 -22 -2 -62 10 -60 6 1 11 14 13 29 4 32 -14 56 -23
31z"/>
<path d="M12220 865 c0 -24 5 -35 15 -35 10 0 15 11 15 35 0 24 -5 35 -15 35
-10 0 -15 -11 -15 -35z"/>
<path d="M12074 876 c-9 -23 0 -69 14 -74 8 -2 12 10 12 42 0 44 -15 62 -26
32z"/>
<path d="M11636 844 c-8 -29 5 -50 23 -40 6 4 11 20 11 37 0 37 -25 39 -34 3z"/>
<path d="M11716 804 c-3 -9 -6 -31 -6 -51 0 -27 4 -34 18 -31 23 4 31 98 9 98
-8 0 -18 -7 -21 -16z"/>
<path d="M12594 755 c-7 -18 2 -45 15 -45 12 0 24 37 16 50 -9 15 -25 12 -31
-5z"/>
<path d="M12144 736 c-8 -22 -1 -59 14 -64 8 -2 12 9 12 37 0 40 -15 55 -26
27z"/>
<path d="M12304 727 c-8 -21 8 -69 26 -75 10 -4 12 4 7 33 -7 46 -23 66 -33
42z"/>
<path d="M2515 668 c-152 -89 -362 -335 -494 -578 -45 -84 -47 -90 -26 -90 8
0 30 30 49 68 120 237 334 487 496 578 38 21 70 45 70 52 0 20 -21 13 -95 -30z"/>
<path d="M12476 703 c-3 -3 -6 -21 -6 -40 0 -23 5 -33 15 -33 10 0 15 10 15
34 0 34 -11 52 -24 39z"/>
<path d="M11633 624 c-7 -20 14 -67 27 -59 18 11 8 75 -11 75 -5 0 -12 -7 -16
-16z"/>
<path d="M12087 623 c-4 -3 -7 -24 -7 -45 0 -54 24 -45 28 10 3 39 -5 52 -21
35z"/>
<path d="M11710 550 c0 -18 6 -33 15 -37 23 -8 28 1 20 36 -9 41 -35 41 -35 1z"/>
<path d="M12197 533 c-10 -18 6 -83 20 -83 10 0 13 11 11 42 -3 38 -20 61 -31
41z"/>
<path d="M8732 473 c-32 -15 -61 -45 -92 -92 l-16 -23 -28 42 c-29 44 -101 85
-130 74 -26 -10 -20 -66 12 -110 62 -85 170 -106 253 -48 66 45 107 132 77
162 -16 16 -36 15 -76 -5z m58 -23 c0 -34 -59 -104 -108 -130 -35 -18 -39 -4
-12 46 31 60 120 121 120 84z m-263 -19 c31 -20 91 -107 80 -118 -14 -13 -98
49 -117 86 -27 54 -16 64 37 32z"/>
<path d="M12090 415 c0 -33 4 -45 15 -45 11 0 15 12 15 45 0 33 -4 45 -15 45
-11 0 -15 -12 -15 -45z"/>
<path d="M11725 440 c-9 -15 6 -60 21 -60 15 0 18 27 8 54 -7 18 -20 21 -29 6z"/>
<path d="M11860 420 c0 -18 20 -50 31 -50 18 0 5 55 -13 58 -10 2 -18 -2 -18
-8z"/>
<path d="M12167 343 c-11 -18 5 -93 20 -93 11 0 13 12 11 47 -3 43 -19 66 -31
46z"/>
<path d="M12090 218 c0 -13 6 -33 14 -44 13 -17 15 -17 21 -2 11 27 1 63 -17
66 -13 3 -18 -3 -18 -20z"/>
<path d="M12255 209 c-8 -35 -3 -44 20 -36 20 8 21 67 1 67 -8 0 -17 -14 -21
-31z"/>
<path d="M12190 85 c0 -25 5 -45 10 -45 6 0 10 20 10 45 0 25 -4 45 -10 45 -5
0 -10 -20 -10 -45z"/>
<path d="M12107 103 c-4 -3 -7 -19 -7 -35 0 -34 24 -34 26 0 1 24 -10 45 -19
35z"/>
<path d="M12218 3 c7 -3 16 -2 19 1 4 3 -2 6 -13 5 -11 0 -14 -3 -6 -6z"/>
</g>
</svg>
