<?xml version="1.0" standalone="no"?>
<!DOCTYPE svg PUBLIC "-//W3C//DTD SVG 20010904//EN"
 "http://www.w3.org/TR/2001/REC-SVG-20010904/DTD/svg10.dtd">
<svg version="1.0" xmlns="http://www.w3.org/2000/svg"
 width="480.000000pt" height="399.000000pt" viewBox="0 0 480.000000 399.000000"
 preserveAspectRatio="xMidYMid meet">

<g transform="translate(0.000000,399.000000) scale(0.100000,-0.100000)"
fill="#000000" stroke="none">
<path d="M595 3965 c-14 -13 -25 -33 -25 -43 0 -27 36 -70 63 -74 21 -3 22 -7
25 -140 1 -85 -1 -138 -7 -138 -15 0 -184 62 -197 72 -6 4 -9 19 -7 32 6 31
-36 76 -70 76 -35 0 -67 -35 -67 -74 0 -41 24 -63 70 -68 30 -3 52 -20 148
-119 l112 -116 -62 -38 c-123 -76 -249 -216 -303 -340 -50 -113 -58 -166 -60
-390 -2 -191 -5 -219 -29 -313 -34 -133 -39 -142 -79 -142 -46 0 -76 23 -60
47 12 19 13 19 55 9 21 -5 28 -3 28 8 0 19 -31 36 -64 36 -25 0 -66 -41 -66
-67 0 -30 47 -63 90 -63 22 0 40 -4 40 -8 0 -5 -18 -37 -40 -73 -62 -98 -82
-147 -88 -214 -5 -65 14 -148 48 -215 30 -60 165 -234 211 -273 l43 -37 -46 6
c-102 14 -158 -18 -158 -89 0 -65 47 -277 73 -327 l23 -45 -43 -150 c-58 -201
-97 -379 -89 -409 14 -57 197 -168 361 -219 155 -48 262 -62 495 -61 221 0
355 13 565 55 219 43 449 134 540 212 l37 32 -27 110 c-106 434 -302 802 -521
975 -94 75 -172 115 -272 141 -41 10 -76 20 -78 22 -1 1 8 27 20 57 l22 55
110 6 c154 8 287 53 371 123 17 14 33 26 36 26 2 0 7 -29 10 -66 7 -91 51
-177 127 -247 117 -109 295 -146 526 -111 l41 6 19 -93 c26 -127 26 -330 1
-377 -20 -37 -67 -69 -114 -78 -47 -9 -106 22 -114 61 -6 28 -7 28 -8 4 -1
-35 38 -69 87 -76 51 -7 79 0 125 31 l37 25 0 -33 c0 -45 23 -118 48 -154 30
-41 13 -59 -69 -76 -36 -7 -75 -19 -87 -25 -37 -20 -92 -94 -108 -146 -15 -46
-15 -54 0 -88 12 -30 26 -43 65 -60 28 -12 54 -32 60 -45 22 -47 152 -82 304
-82 125 0 157 22 193 135 13 39 13 38 8 -31 -6 -64 -4 -73 17 -97 42 -48 174
-58 339 -26 76 15 105 32 121 71 7 18 18 36 23 40 20 14 201 8 406 -12 112
-12 216 -18 231 -15 15 4 41 16 56 28 25 20 40 22 158 23 146 2 213 16 313 66
153 76 262 254 262 425 0 208 -113 415 -267 489 -155 74 -387 23 -450 -100
-22 -43 -19 -129 6 -197 36 -96 93 -124 65 -32 -20 66 -11 109 29 133 47 29
84 26 118 -11 33 -36 43 -76 37 -162 -10 -157 -109 -217 -358 -217 -84 0 -98
3 -130 25 -83 57 -383 467 -533 728 l-28 47 68 -36 c111 -60 141 -84 183 -147
45 -67 55 -65 12 4 -37 57 -98 112 -163 144 -104 53 -155 118 -294 378 -30 57
-55 107 -55 110 0 4 24 -11 53 -33 28 -23 129 -79 222 -127 94 -47 188 -98
210 -113 68 -46 92 -106 119 -285 3 -16 2 5 0 48 -6 100 -35 179 -84 226 -21
20 -102 70 -181 111 -306 160 -360 211 -425 404 -34 98 -30 107 17 38 99 -149
220 -251 440 -371 182 -99 286 -194 310 -284 9 -35 8 -60 -11 -152 -12 -60
-37 -150 -56 -199 -58 -149 -40 -216 67 -246 95 -28 224 94 163 154 -21 21
-37 10 -30 -20 19 -75 -111 -128 -169 -69 -36 36 -32 73 25 201 64 144 82 223
83 354 2 234 -81 365 -296 468 -112 54 -234 134 -342 223 -122 102 -161 140
-147 146 29 11 125 98 168 151 51 62 94 144 94 180 0 36 -19 62 -55 78 -69 28
-142 10 -206 -52 l-36 -35 -5 45 c-8 72 -54 154 -127 226 -75 74 -146 113
-251 136 -39 9 -70 21 -70 28 0 16 -93 315 -120 389 -12 31 -30 66 -40 79 -18
22 -19 22 -37 5 -16 -16 -18 -38 -17 -250 l2 -233 -68 -11 c-234 -36 -389
-242 -313 -414 24 -53 104 -130 167 -161 47 -23 53 -32 36 -58 -8 -13 -13 -11
-32 12 -17 21 -27 25 -38 18 -12 -8 -11 -13 8 -39 24 -33 26 -40 13 -60 -8
-12 -16 -9 -46 17 -56 50 -80 19 -25 -33 34 -33 34 -34 16 -58 -13 -16 -16
-16 -57 7 -23 14 -46 23 -51 20 -18 -12 -6 -35 27 -51 55 -26 43 -44 -38 -53
-52 -6 -68 -23 -24 -28 15 -2 27 -5 27 -8 0 -2 -20 -31 -45 -65 -25 -34 -45
-65 -45 -70 0 -5 -9 -9 -19 -9 -11 0 -32 -11 -48 -24 -22 -19 -33 -22 -47 -14
-26 15 -46 -10 -57 -68 -19 -102 -111 -177 -255 -210 -80 -17 -137 -11 -236
26 -53 20 -57 23 -63 61 -4 22 -5 42 -3 43 1 1 43 12 92 24 106 25 197 66 280
126 63 45 148 130 180 178 10 15 22 25 27 22 5 -3 9 4 9 14 0 11 16 53 35 93
112 239 74 540 -95 750 -138 172 -344 280 -561 296 l-89 6 0 166 0 166 33 15
c68 32 53 121 -22 128 -58 6 -91 -53 -61 -109 9 -15 2 -34 -31 -96 -70 -129
-57 -129 -138 0 -39 62 -71 118 -71 124 0 6 7 16 15 23 22 18 19 76 -5 100
-27 27 -66 25 -95 -5z m90 -26 c11 -18 -4 -57 -25 -64 -31 -10 -60 12 -60 46
0 46 60 59 85 18z m328 -50 c5 -9 7 -28 3 -42 -5 -21 -12 -27 -34 -27 -49 0
-69 42 -36 75 20 19 53 16 67 -6z m-185 -317 c9 2 38 41 64 88 l48 85 0 -146
0 -147 -67 -11 c-38 -7 -99 -22 -137 -34 l-69 -22 -93 100 c-51 55 -91 101
-90 103 2 1 47 -13 101 -33 53 -19 99 -35 101 -35 2 0 4 53 4 118 l0 117 60
-93 c43 -67 65 -92 78 -90z m-420 136 c17 -17 15 -53 -3 -68 -38 -31 -96 27
-65 65 15 18 51 20 68 3z m1986 -221 c20 -59 36 -112 36 -117 0 -15 -43 -12
-68 6 -20 14 -22 23 -22 127 0 67 4 107 9 102 5 -6 25 -58 45 -118z m-1199
-97 c154 -39 311 -143 404 -267 28 -37 51 -71 51 -74 0 -3 -26 7 -57 23 -70
34 -166 48 -248 37 -218 -30 -328 -19 -431 42 -42 26 -52 38 -62 73 -13 52
-50 102 -65 87 -6 -6 -2 -21 12 -44 31 -51 28 -113 -9 -169 -33 -50 -79 -87
-242 -197 -173 -117 -254 -210 -274 -316 -6 -35 -8 -37 -15 -17 -5 12 -9 48
-10 81 -2 47 3 68 26 110 43 78 127 164 228 234 175 119 262 229 238 299 -6
18 -19 40 -27 50 -16 16 -15 18 12 28 34 13 135 37 184 43 63 9 208 -3 285
-23z m-508 -72 c32 -30 30 -75 -6 -124 -41 -56 -73 -84 -197 -172 -71 -52
-130 -103 -169 -150 -32 -39 -60 -70 -62 -68 -7 7 41 154 66 204 40 78 112
173 171 222 43 36 156 110 169 110 2 0 15 -10 28 -22z m1723 6 l38 -6 25 -87
c13 -47 20 -88 15 -89 -21 -9 -62 11 -104 50 -42 38 -44 43 -44 95 0 46 3 54
16 49 9 -3 33 -9 54 -12z m-27 -178 c18 -14 53 -30 79 -36 46 -12 49 -14 63
-63 21 -71 20 -77 -17 -77 -49 0 -105 18 -132 43 -19 18 -25 35 -30 90 -3 37
-3 67 0 67 3 0 20 -11 37 -24z m-1370 -72 c65 -18 203 -20 285 -4 148 30 293
-8 370 -95 84 -95 102 -306 43 -495 -34 -106 -41 -106 -41 -2 l0 92 30 0 c38
0 43 35 6 44 -22 5 -24 10 -19 44 3 20 12 47 20 59 9 14 11 23 4 27 -6 4 -13
30 -17 57 -10 72 -55 136 -123 171 -76 40 -147 38 -288 -6 -60 -19 -129 -37
-154 -41 -84 -13 -232 40 -294 104 l-25 28 21 44 22 45 54 -29 c30 -16 77 -36
106 -43z m1301 -24 c4 -50 4 -96 0 -102 -5 -7 -39 -9 -111 -5 -187 12 -230 54
-126 124 57 37 142 66 214 72 13 1 17 -15 23 -89z m353 49 c69 -27 146 -85
193 -148 40 -54 80 -146 80 -184 -1 -14 -7 -6 -19 24 -28 72 -67 115 -134 149
-50 25 -72 30 -133 30 l-73 0 -15 53 c-33 117 -34 111 9 103 21 -4 62 -16 92
-27z m-1849 -111 c62 -54 156 -91 247 -96 73 -4 91 -1 200 36 149 49 191 57
246 42 90 -24 149 -87 164 -177 9 -54 1 -77 -32 -92 -44 -20 -51 2 -14 44 32
36 37 65 14 72 -6 2 -14 -5 -18 -16 -3 -12 -13 -28 -22 -36 -25 -25 -41 -2
-35 50 4 37 2 45 -12 45 -11 0 -16 -9 -16 -26 0 -23 -3 -25 -22 -18 -13 4 -55
8 -95 8 -57 1 -77 -3 -99 -20 -62 -46 -87 -110 -73 -188 8 -46 34 -83 79 -113
70 -48 212 -19 250 51 10 20 21 26 46 26 l32 0 -2 -114 c-1 -110 -2 -116 -33
-164 -43 -65 -157 -172 -230 -214 -142 -83 -270 -113 -437 -105 -129 6 -211
29 -331 90 -98 51 -231 179 -288 277 -33 58 -37 72 -37 136 0 86 17 147 59
207 l31 46 46 -45 c25 -25 43 -52 40 -59 -3 -8 -29 -16 -60 -20 -58 -8 -80
-22 -67 -44 7 -11 21 -11 79 -1 l71 12 43 -45 c29 -30 57 -49 86 -57 159 -42
289 137 198 273 -47 69 -130 99 -204 74 -42 -15 -42 -14 -42 9 0 13 -5 24 -12
24 -9 0 -9 3 0 12 14 14 14 14 100 16 60 2 63 3 60 25 -2 14 -11 23 -27 25
-23 4 -22 6 20 42 24 22 48 39 53 40 4 0 25 -14 44 -32z m1242 -48 c14 -7 76
-15 142 -18 l118 -5 0 -39 c0 -55 26 -66 130 -50 43 6 95 18 115 27 37 15 37
16 31 56 l-7 42 74 -6 c113 -8 179 -50 226 -144 23 -47 38 -123 24 -123 -5 0
-20 12 -34 26 -33 36 -86 69 -145 89 -73 25 -170 21 -312 -14 -289 -71 -415
-66 -466 19 -22 39 -20 76 9 139 l25 54 23 -20 c12 -11 33 -26 47 -33z m333
23 c18 -9 61 -19 97 -22 61 -6 65 -8 65 -31 0 -20 -7 -26 -40 -36 -22 -6 -64
-14 -93 -17 -50 -6 -53 -5 -62 19 -11 27 -14 104 -5 104 4 0 20 -8 38 -17z
m-1858 -192 c-15 -15 -17 -14 -31 3 -20 28 -18 42 14 66 l27 22 3 -37 c2 -25
-2 -43 -13 -54z m2654 38 c40 -14 53 -38 42 -76 -28 -96 -230 -308 -263 -275
-25 25 30 159 98 242 l38 45 -52 -49 c-28 -28 -64 -74 -79 -103 -54 -103 -61
-42 -8 65 37 74 107 147 148 155 38 7 43 7 76 -4z m-2710 -55 c26 -44 26 -54
2 -54 -11 0 -30 14 -42 31 -22 31 -22 32 -4 45 24 18 20 20 44 -22z m2293 -2
c35 -17 77 -45 93 -62 27 -28 30 -38 30 -96 0 -60 -6 -77 -20 -54 -10 16 -116
67 -177 85 -84 24 -142 21 -233 -11 -68 -24 -96 -28 -185 -29 -97 0 -110 2
-162 29 -54 27 -155 112 -145 122 2 2 20 -3 40 -11 72 -30 241 -13 467 45 110
29 210 23 292 -18z m-2014 8 c36 -22 42 -35 11 -25 -30 10 -75 -3 -60 -18 14
-14 14 -50 -1 -65 -7 -7 -22 -12 -35 -12 -30 0 -29 -21 3 -59 19 -22 35 -31
57 -31 30 -1 31 -1 13 -15 -11 -8 -39 -15 -61 -15 -58 0 -106 34 -125 88 -13
37 -13 47 0 84 28 80 124 113 198 68z m750 0 c38 -23 42 -35 8 -26 -29 7 -75
-7 -58 -18 16 -9 15 -49 0 -64 -7 -7 -22 -12 -35 -12 -32 0 -29 -25 6 -61 21
-20 40 -29 63 -29 l33 -1 -25 -14 c-32 -19 -94 -19 -129 -1 -89 46 -86 193 4
232 44 19 95 17 133 -6z m-728 -110 c0 -24 -26 -38 -42 -22 -16 16 -2 42 22
42 13 0 20 -7 20 -20z m756 9 c3 -6 -1 -18 -10 -27 -15 -15 -17 -15 -32 0 -19
19 -11 38 16 38 10 0 22 -5 26 -11z m134 -15 c0 -22 -3 -25 -22 -20 -13 3 -26
6 -30 6 -5 0 -8 6 -8 14 0 13 9 17 53 25 4 0 7 -11 7 -25z m1005 -48 c97 -25
144 -52 160 -90 19 -44 19 -76 2 -76 -8 0 -22 -9 -32 -20 -17 -19 -19 -19 -46
-3 -33 20 -35 32 -13 75 11 21 13 33 5 41 -14 14 -35 -4 -51 -43 -13 -32 -14
-33 -46 -24 -17 4 -23 16 -27 51 -5 48 -18 69 -36 58 -8 -4 -9 -23 -5 -54 5
-41 4 -49 -12 -53 -11 -3 -26 -9 -35 -12 -12 -5 -20 1 -29 23 -16 39 -37 58
-51 44 -7 -7 -4 -23 10 -51 25 -50 25 -51 0 -81 l-19 -24 -55 21 c-34 13 -57
17 -61 11 -11 -19 4 -35 45 -49 50 -16 54 -21 42 -53 -8 -20 -19 -27 -54 -32
-56 -9 -76 -20 -60 -36 8 -8 31 -9 73 -4 57 7 63 10 75 38 l13 31 16 -33 c67
-129 266 -71 254 75 -2 24 -2 44 0 44 1 0 14 -8 29 -17 25 -17 26 -16 58 19
l33 36 26 -104 c30 -121 34 -252 11 -353 -16 -66 -78 -195 -118 -245 l-23 -28
-39 67 c-73 125 -194 255 -312 336 -136 94 -337 131 -484 89 -18 -5 -35 -8
-37 -5 -7 6 36 59 113 140 37 39 95 109 128 158 l61 87 86 0 c88 0 192 20 238
45 34 18 102 19 167 1z m-2416 -155 c28 -85 4 -198 -53 -250 -32 -30 -39 -25
-25 20 18 61 49 220 49 252 0 36 12 27 29 -22z m2954 -258 c60 -44 171 -113
248 -153 160 -83 223 -140 258 -236 21 -54 46 -193 37 -201 -2 -3 -12 11 -21
30 -41 86 -133 160 -350 282 -149 83 -193 115 -276 202 -79 82 -139 169 -184
266 -59 128 -55 128 66 6 63 -64 163 -152 222 -196z m-608 200 c5 -13 18 -23
28 -23 22 0 34 -27 18 -43 -9 -9 -16 -9 -29 0 -13 7 -24 8 -36 1 -29 -16 -66
6 -66 40 0 15 6 34 12 40 19 19 62 10 73 -15z m-2262 -101 c13 -21 44 -60 67
-87 42 -49 42 -49 38 -114 -4 -47 -17 -94 -47 -164 -49 -115 -65 -190 -56
-261 6 -47 6 -50 -10 -35 -9 9 -23 34 -30 55 -11 29 -14 33 -15 16 0 -28 15
-59 46 -92 34 -38 143 -263 154 -320 5 -27 6 -60 1 -72 -8 -21 -8 -21 -31 10
-13 18 -60 62 -104 99 -130 107 -166 145 -196 204 -57 111 -60 234 -7 321 12
20 36 61 54 90 44 73 83 195 96 300 6 48 12 88 13 88 1 0 13 -17 27 -38z
m-107 -195 c-14 -45 -43 -111 -66 -147 -72 -115 -84 -147 -85 -230 0 -41 3
-93 8 -115 l7 -40 -25 40 c-74 117 -75 290 -2 388 14 17 37 56 51 84 19 38 37
58 64 72 21 11 45 27 52 36 25 30 23 -2 -4 -88z m1968 48 c177 -46 361 -203
487 -416 l42 -70 -52 -53 c-86 -87 -222 -156 -339 -172 l-50 -6 52 54 c58 60
85 121 95 218 l6 55 23 -22 c25 -26 42 -30 42 -10 0 32 -91 87 -145 87 -36 0
-31 -17 10 -34 40 -17 42 -30 24 -118 -24 -111 -85 -186 -175 -215 -46 -14
-62 -15 -123 -4 -307 55 -427 337 -274 649 16 32 25 39 78 54 77 21 223 23
299 3z m-1684 -64 c21 -74 7 -151 -48 -276 -17 -39 -36 -101 -43 -138 -11 -59
-15 -67 -35 -67 -19 0 -24 7 -30 46 -10 71 1 154 31 225 52 126 67 175 69 225
1 50 1 51 23 37 13 -8 27 -31 33 -52z m1234 -58 c-13 -38 -24 -78 -24 -91 0
-38 -25 -75 -74 -110 -92 -66 -191 -98 -333 -108 -101 -8 -106 -4 -83 48 10
21 17 23 66 20 62 -4 175 26 241 64 67 39 120 107 134 172 10 51 13 55 22 35
14 -31 34 -29 52 7 25 48 25 35 -1 -37z m-1140 -23 c18 -64 21 -158 6 -212
-20 -72 -111 -178 -153 -178 -19 0 2 97 44 201 34 85 43 119 47 186 4 76 6 81
22 70 10 -6 26 -36 34 -67z m2393 -45 c53 -118 230 -431 372 -658 95 -153 326
-465 399 -539 l46 -48 -46 -47 c-25 -27 -56 -68 -69 -93 -31 -61 -31 -148 0
-209 l22 -43 -59 7 c-33 4 -112 7 -174 7 l-115 1 4 226 c4 222 0 262 -27 246
-9 -6 -11 -40 -5 -144 3 -76 3 -154 0 -175 -7 -35 -10 -37 -34 -31 -14 4 -73
9 -131 12 -93 4 -114 2 -185 -21 -43 -14 -79 -24 -80 -23 -23 62 -24 81 -14
221 6 101 6 153 -1 160 -19 19 -24 -5 -32 -152 -5 -81 -13 -166 -19 -189 l-11
-42 -42 24 c-49 28 -140 51 -248 60 -43 4 -78 9 -78 10 0 1 25 54 55 116 30
63 61 143 70 179 31 123 30 484 -1 655 -5 27 -1 34 41 64 58 42 158 158 208
242 42 71 87 202 87 253 0 28 9 52 15 44 1 -2 24 -53 52 -113z m-2253 36 c36
-11 89 -23 117 -27 96 -13 77 -64 -45 -124 -147 -72 -241 -198 -240 -325 0
-36 6 -72 16 -91 17 -31 17 -31 -17 -64 l-33 -32 -25 44 c-28 48 -67 157 -67
187 0 14 13 27 38 40 50 25 118 100 145 159 18 39 22 65 22 155 0 76 3 106 11
103 7 -3 41 -14 78 -25z m306 -74 c0 -18 7 -42 15 -54 8 -12 12 -24 8 -26 -19
-11 -108 -18 -146 -12 -40 7 -41 8 -21 24 26 21 44 54 44 80 0 16 8 20 43 23
55 4 57 3 57 -35z m150 -134 c0 -8 -7 -27 -15 -42 l-14 -29 -138 -7 c-76 -4
-151 -7 -167 -8 -27 -2 -31 2 -45 46 -13 42 -13 50 0 58 7 5 25 7 39 3 56 -13
168 -14 220 -1 60 14 120 4 120 -20z m-410 -57 l12 -38 -52 -46 c-29 -25 -59
-61 -66 -79 -30 -70 -9 -139 50 -167 44 -21 63 -20 107 3 32 18 36 18 35 3 -1
-11 11 -18 42 -23 23 -5 47 -11 52 -14 15 -9 12 -41 -5 -55 -13 -11 -20 -9
-40 10 -25 23 -48 27 -106 15 -46 -9 -124 23 -170 71 -32 33 -34 39 -34 107 0
56 5 83 24 120 26 54 119 153 131 140 4 -4 13 -25 20 -47z m367 -58 c-3 -7
-17 -44 -32 -83 -26 -65 -68 -125 -87 -125 -18 0 -101 86 -120 125 -11 22 -27
47 -35 57 -13 15 -9 17 49 22 35 4 90 8 123 9 33 2 71 4 84 5 15 1 21 -2 18
-10z m-289 -68 c18 -24 29 -46 25 -50 -4 -3 -41 -19 -80 -34 -40 -15 -75 -32
-79 -37 -3 -5 -12 -9 -20 -9 -40 0 7 113 64 154 20 14 41 25 47 23 5 -2 25
-23 43 -47z m-454 -32 c16 -62 32 -138 30 -138 -5 0 -52 94 -64 126 -8 20 -7
24 11 24 11 0 21 -6 23 -12z m543 -121 c5 -33 3 -37 -17 -37 -16 0 -21 4 -16
16 4 9 1 23 -5 30 -14 17 -43 10 -78 -17 -25 -20 -76 -25 -100 -10 -16 10 38
41 124 71 47 17 51 17 68 1 10 -10 20 -34 24 -54z m284 57 c227 -66 415 -258
570 -578 52 -108 129 -302 129 -326 0 -14 -48 6 -202 82 -122 61 -150 79 -212
141 -83 84 -179 224 -265 387 -65 125 -131 273 -131 296 0 19 42 18 111 -2z
m-121 -48 c0 -25 179 -371 241 -466 35 -54 99 -132 148 -180 75 -74 101 -93
206 -145 66 -32 147 -69 179 -81 l60 -21 18 -64 c10 -35 18 -68 18 -72 0 -12
-105 3 -180 25 -253 77 -460 277 -615 593 -53 107 -135 331 -135 369 0 23 27
56 47 56 7 0 13 -6 13 -14z m1443 -13 c4 -16 12 -103 18 -195 10 -128 10 -194
1 -285 -12 -122 -38 -233 -54 -233 -5 0 -18 21 -30 47 -23 52 -26 123 -13 309
7 99 -1 211 -22 315 -5 24 -1 29 38 47 57 26 56 26 62 -5z m-1546 -24 c6 -13
28 -76 48 -141 l37 -116 -17 -86 c-74 -398 -237 -643 -483 -728 -56 -19 -87
-23 -192 -23 -110 0 -136 4 -217 29 -59 19 -93 34 -93 43 0 24 22 103 29 103
3 0 28 -7 55 -15 63 -19 185 -19 261 0 33 8 100 35 150 60 97 48 105 47 105
-13 0 -50 -45 -92 -102 -93 -37 0 -40 -2 -19 -10 42 -17 91 6 152 68 31 32 62
68 68 80 13 26 14 82 2 102 -7 11 1 28 28 60 100 121 161 300 161 470 0 41 6
80 15 98 14 28 14 34 -5 74 -11 24 -20 50 -20 57 0 21 24 8 37 -19z m-286
-104 c16 -4 29 -10 27 -14 -2 -4 -37 -40 -80 -79 l-76 -73 -11 51 c-6 29 -16
61 -22 72 -9 17 -5 26 26 58 l37 38 34 -23 c19 -13 48 -27 65 -30z m-187 -75
c35 -109 27 -144 -19 -85 -21 29 -27 48 -29 103 -2 37 -6 76 -11 87 -4 11 4 2
19 -20 14 -22 32 -60 40 -85z m360 55 c44 -44 27 -182 -38 -320 -59 -125 -99
-150 -171 -105 -33 21 -111 108 -103 115 2 3 36 -4 74 -15 77 -22 88 -24 80
-11 -3 5 -21 12 -40 15 -64 12 -136 37 -136 46 0 6 8 10 18 10 12 0 14 2 4 8
-22 15 2 53 85 133 132 129 190 161 227 124z m3601 -29 c119 -54 213 -194 241
-360 45 -260 -103 -482 -361 -541 -89 -21 -282 -17 -276 5 2 8 6 36 8 61 l5
47 82 6 c231 20 373 97 428 234 18 46 22 77 23 157 0 117 -17 165 -86 240 -40
44 -122 95 -151 95 -7 0 10 -11 39 -24 132 -62 205 -208 181 -363 -25 -159
-115 -247 -293 -288 -58 -14 -210 -23 -219 -14 -2 2 -7 16 -11 32 -7 26 -6 27
36 27 155 1 318 91 370 203 47 105 -3 280 -94 329 -12 6 -5 -5 15 -24 52 -48
81 -118 82 -193 0 -72 -22 -123 -77 -177 -104 -101 -326 -141 -384 -68 l-22
27 58 6 c75 8 158 39 195 73 89 84 98 281 15 363 -25 25 -39 31 -75 31 -57 0
-99 -22 -121 -63 l-18 -32 -3 47 c-4 66 20 112 76 145 98 58 236 66 337 19z
m-4208 -6 c39 -19 88 -59 141 -112 45 -45 82 -85 82 -88 0 -3 -11 -18 -23 -34
-22 -28 -29 -30 -109 -34 -53 -3 -93 0 -106 7 -14 7 -22 8 -22 2 0 -20 82 -33
145 -23 33 5 62 8 64 6 9 -9 -56 -88 -95 -116 -76 -54 -139 -36 -184 53 -24
46 -74 292 -66 323 6 26 42 44 87 45 14 1 53 -12 86 -29z m670 -27 c-3 -10 -5
-4 -5 12 0 17 2 24 5 18 2 -7 2 -21 0 -30z m-10 -135 c-3 -8 -6 -5 -6 6 -1 11
2 17 5 13 3 -3 4 -12 1 -19z m212 -78 c22 -44 45 -108 52 -141 11 -56 11 -61
-10 -80 -26 -25 -27 -51 -2 -73 27 -24 62 -17 81 17 14 27 14 29 -13 52 -15
14 -30 39 -33 57 -6 29 -1 25 43 -37 28 -38 71 -93 97 -121 50 -56 57 -79 27
-89 -42 -13 -39 -90 5 -101 52 -13 85 54 44 91 -11 10 -18 20 -16 22 10 10
136 -100 136 -118 0 -10 -5 -19 -10 -19 -6 0 -14 -10 -19 -22 -20 -54 27 -94
74 -64 34 22 33 58 -2 87 -31 25 -33 25 89 -28 85 -37 87 -38 68 -56 -35 -31
-20 -77 25 -77 40 0 61 50 33 79 -11 10 -8 11 15 7 15 -3 38 -8 52 -11 21 -5
24 -10 19 -30 -4 -15 -1 -32 6 -40 13 -16 49 -20 66 -7 5 4 -4 -6 -21 -21 -67
-63 -279 -146 -474 -186 -519 -108 -961 -83 -1252 71 -81 43 -169 111 -169
131 1 34 15 36 86 14 70 -22 71 -23 56 -45 -13 -19 -13 -25 2 -47 30 -45 86
-28 86 27 l0 28 107 0 c83 0 104 -3 95 -12 -18 -18 -15 -43 8 -63 17 -15 24
-16 45 -7 32 15 34 55 4 76 -21 14 -20 15 22 26 24 7 69 25 101 41 l58 29 0
-28 c0 -35 16 -52 50 -52 34 0 50 17 50 52 0 19 -8 33 -26 44 l-25 17 44 46
c25 25 58 65 75 89 17 23 33 38 37 32 3 -5 -6 -21 -22 -34 -24 -21 -26 -27
-18 -52 8 -22 18 -30 41 -32 33 -3 64 18 64 44 0 8 -11 26 -25 40 -33 33 -32
68 4 140 16 33 42 95 57 139 l29 80 3 -48 c3 -41 -1 -52 -22 -72 -14 -13 -26
-31 -26 -40 0 -19 35 -55 55 -55 20 0 55 36 55 55 0 9 -11 26 -25 39 -23 21
-25 31 -25 106 0 70 17 210 26 210 2 0 21 -36 43 -80z m-234 -23 c-23 -82 -87
-206 -128 -245 l-33 -32 -70 58 c-39 32 -79 77 -93 102 l-24 45 44 -42 c112
-107 186 -90 262 62 14 28 31 70 38 94 20 67 24 28 4 -42z m-370 -113 c15 -32
42 -67 75 -95 29 -24 75 -65 101 -90 58 -55 63 -84 22 -147 -27 -41 -48 -57
-37 -27 9 23 -14 79 -44 108 -15 14 -57 37 -94 52 -82 33 -128 79 -128 130 0
36 23 103 49 144 l15 24 9 -24 c5 -13 19 -47 32 -75z m-122 -148 c23 -34 63
-59 150 -92 37 -14 67 -29 67 -33 0 -12 -113 -68 -180 -90 -94 -31 -191 -37
-270 -17 -36 9 -68 20 -72 24 -4 4 11 74 33 154 l41 147 33 -16 c40 -19 89
-12 136 20 l34 23 5 -46 c3 -25 13 -59 23 -74z m827 49 c20 -25 8 -50 -25 -50
-21 0 -31 5 -33 18 -4 21 14 47 33 47 7 0 18 -7 25 -15z m-149 -21 c17 -21 0
-49 -32 -49 -27 0 -37 28 -19 50 16 19 34 19 51 -1z m2760 -127 c-64 -69 -87
-217 -43 -291 13 -21 22 -39 20 -41 -2 -1 -22 0 -46 3 -39 4 -45 8 -72 56 -54
94 -36 189 54 279 47 47 47 47 78 31 l30 -16 -21 -21z m164 -18 c88 -105 41
-319 -70 -319 -116 0 -163 131 -95 267 47 93 112 114 165 52z m-1619 -107
c-29 -60 -58 -123 -64 -140 -10 -30 -13 -31 -39 -21 -66 25 -81 75 -44 148 23
44 81 99 114 105 12 3 31 7 42 9 11 3 25 5 32 6 7 0 -11 -48 -41 -107z m-971
43 c0 -25 -4 -30 -24 -30 -32 0 -49 28 -31 50 7 9 23 15 34 13 16 -2 21 -10
21 -33z m-458 -31 c8 -22 -10 -49 -32 -49 -10 0 -22 7 -28 16 -15 24 -1 49 28
49 15 0 28 -7 32 -16z m1643 -65 c73 -12 151 -42 175 -69 16 -18 16 -22 1 -68
-23 -68 -43 -83 -118 -89 -114 -9 -307 32 -309 65 -3 36 3 59 31 119 l29 63
63 -6 c35 -3 92 -10 128 -15z m-1015 -24 c0 -25 -4 -30 -24 -30 -32 0 -49 28
-31 50 7 9 23 15 34 13 16 -2 21 -10 21 -33z m1683 -15 c18 -7 32 -19 32 -28
0 -36 -29 -135 -42 -148 -35 -36 -293 -59 -367 -33 -31 11 -31 12 -31 77 0 77
3 83 47 106 86 44 273 57 361 26z m-2484 -46 c12 -12 13 -20 6 -35 -12 -21
-40 -25 -58 -7 -16 16 -15 23 4 42 19 20 29 20 48 0z m1010 1 c7 -19 -20 -46
-39 -39 -15 6 -20 35 -8 47 12 12 41 7 47 -8z m154 -21 c3 -22 -21 -39 -39
-28 -11 6 -12 38 -2 48 13 13 38 1 41 -20z m-1694 -79 c9 -25 -5 -45 -30 -45
-26 0 -40 20 -30 45 3 8 16 15 30 15 13 0 26 -7 30 -15z m274 -29 c-2 -13 -10
-21 -23 -21 -23 0 -33 34 -14 45 20 13 40 -1 37 -24z"/>
<path d="M1403 2925 c-8 -23 -3 -25 80 -29 61 -4 77 -2 77 9 0 22 -34 35 -95
35 -41 0 -57 -4 -62 -15z"/>
<path d="M1065 2648 c-8 -19 20 -77 41 -85 23 -9 16 -21 -21 -33 -35 -12 -44
-23 -25 -35 12 -7 94 28 105 44 4 7 -9 27 -32 49 -21 20 -43 46 -50 57 -10 18
-12 18 -18 3z"/>
<path d="M867 2359 c-25 -15 -52 -78 -39 -91 13 -13 32 -1 32 19 0 15 2 15 18
1 35 -32 88 -51 137 -51 86 0 207 51 162 69 -8 3 -30 -2 -47 -11 -43 -22 -129
-30 -172 -16 -41 14 -80 51 -60 58 6 3 12 11 12 19 0 17 -18 18 -43 3z"/>
<path d="M1874 1936 c-8 -21 -1 -61 11 -61 6 0 11 17 13 38 3 37 -13 52 -24
23z"/>
<path d="M2024 1926 c-7 -31 4 -68 19 -63 15 5 20 32 13 63 -8 31 -24 31 -32
0z"/>
</g>
</svg>
